<?xml version="1.0" encoding="utf-8"?>
<!-- Generator: Adobe Illustrator 16.0.0, SVG Export Plug-In . SVG Version: 6.00 Build 0)  -->
<!DOCTYPE svg PUBLIC "-//W3C//DTD SVG 1.1//EN" "http://www.w3.org/Graphics/SVG/1.1/DTD/svg11.dtd">
<svg version="1.1" id="Layer_1" xmlns="http://www.w3.org/2000/svg" xmlns:xlink="http://www.w3.org/1999/xlink" x="0px" y="0px"
	 width="130px" height="100px" viewBox="0 0 130 100" enable-background="new 0 0 130 100" xml:space="preserve">
<g>
	<path fill-rule="evenodd" clip-rule="evenodd" fill="#999999" d="M64.004,74.749c-12.31-0.003-24.622-0.135-36.928,0.063
		c-4.898,0.077-9.154-3.428-9.125-9.222c0.083-16.017,0.021-32.033,0.034-48.048c0.004-5.591,3.471-9.071,9.036-9.073
		c24.751-0.01,49.502-0.012,74.254-0.001c5.434,0.003,8.762,3.356,8.765,8.814c0.014,16.214,0.014,32.429,0,48.642
		c-0.003,5.62-3.22,8.811-8.908,8.82C88.755,74.763,76.38,74.751,64.004,74.749z M25.393,10.858
		c-3.338,0.402-5.243,2.604-5.245,6.139c-0.009,16.118-0.004,32.235-0.003,48.353c0,5.167,2.114,7.287,7.288,7.287
		c24.409,0.003,48.82,0.003,73.228,0.002c5.304,0,7.413-2.115,7.414-7.44c0.004-15.783,0.002-31.566-0.001-47.349
		c-0.002-5.004-2.07-7.078-7.043-7.079c-19.528-0.001-39.055-0.004-58.583,0.004c-5.549,0.001-11.1,0.039-16.647,0.06
		C25.664,10.843,25.529,10.851,25.393,10.858z"/>
	<path fill-rule="evenodd" clip-rule="evenodd" fill="#FCFCFC" d="M26.212,11.167c-0.122,0.214-0.254,0.242-0.401,0.023
		C25.945,11.183,26.079,11.176,26.212,11.167z"/>
	<path fill-rule="evenodd" clip-rule="evenodd" fill="#999999" d="M43.163,17.845c-3.751,0-7.002,3.155-7.089,6.876
		c-0.09,3.827,3.352,7.338,7.148,7.292c3.861-0.045,7.03-3.258,7.032-7.129C50.256,21.009,47.067,17.843,43.163,17.845z
		 M43.206,29.993c-2.713,0.031-5.173-2.478-5.108-5.212c0.061-2.66,2.385-4.914,5.065-4.915c2.791-0.001,5.069,2.262,5.068,5.031
		C48.229,27.664,45.965,29.959,43.206,29.993z"/>
	<polygon fill-rule="evenodd" clip-rule="evenodd" fill="none" stroke="#999999" stroke-width="2" stroke-miterlimit="10" points="
		27.635,65 43.258,38.138 54.21,49.734 73.329,20.534 100.365,65 	"/>
</g>
<g>
	<path fill="#999999" d="M5.94,89.434H4.874v-8.089H5.94V89.434z"/>
	<path fill="#999999" d="M9.268,81.345l2.645,6.6l2.645-6.6h1.383v8.089h-1.067v-3.149l0.1-3.4l-2.655,6.55h-0.817L8.851,82.9
		l0.105,3.384v3.149H7.89v-8.089H9.268z"/>
	<path fill="#999999" d="M22.39,87.317h-3.389l-0.761,2.116h-1.1l3.088-8.089h0.934l3.094,8.089h-1.094L22.39,87.317z
		 M19.323,86.444h2.75l-1.378-3.783L19.323,86.444z"/>
	<path fill="#999999" d="M31.256,88.372c-0.274,0.393-0.656,0.687-1.147,0.881s-1.062,0.292-1.714,0.292
		c-0.659,0-1.244-0.155-1.755-0.464c-0.511-0.31-0.907-0.749-1.186-1.319c-0.28-0.57-0.423-1.231-0.431-1.983v-0.706
		c0-1.218,0.284-2.162,0.853-2.833c0.569-0.67,1.368-1.006,2.397-1.006c0.844,0,1.524,0.216,2.039,0.647s0.83,1.044,0.944,1.836
		h-1.066c-0.2-1.073-0.837-1.61-1.911-1.61c-0.715,0-1.256,0.251-1.625,0.753s-0.555,1.229-0.558,2.183v0.661
		c0,0.908,0.208,1.63,0.622,2.166c0.415,0.535,0.976,0.804,1.683,0.804c0.4,0,0.75-0.045,1.05-0.134
		c0.3-0.088,0.548-0.238,0.744-0.448v-1.813h-1.872v-0.872h2.933V88.372z"/>
	<path fill="#999999" d="M37.605,85.695H34.1v2.866h4.072v0.872h-5.139v-8.089h5.083v0.872H34.1v2.605h3.505V85.695z"/>
	<path fill="#999999" d="M48.533,89.434h-1.072L43.389,83.2v6.233h-1.072v-8.089h1.072l4.083,6.261v-6.261h1.061V89.434z"/>
	<path fill="#999999" d="M56.649,85.65c0,0.793-0.133,1.484-0.4,2.075s-0.645,1.041-1.133,1.353
		c-0.489,0.311-1.059,0.467-1.711,0.467c-0.637,0-1.202-0.156-1.694-0.47c-0.493-0.313-0.875-0.759-1.147-1.339
		c-0.272-0.579-0.412-1.251-0.419-2.014V85.14c0-0.778,0.135-1.465,0.405-2.062c0.271-0.596,0.653-1.053,1.147-1.369
		c0.494-0.316,1.06-0.476,1.697-0.476c0.648,0,1.22,0.157,1.714,0.47c0.495,0.313,0.875,0.767,1.142,1.361s0.4,1.286,0.4,2.075
		V85.65z M55.588,85.128c0-0.959-0.192-1.695-0.578-2.208s-0.924-0.77-1.617-0.77c-0.674,0-1.205,0.257-1.591,0.77
		c-0.387,0.513-0.586,1.225-0.597,2.136v0.595c0,0.93,0.195,1.66,0.586,2.191s0.929,0.798,1.614,0.798
		c0.689,0,1.222-0.251,1.6-0.753c0.377-0.502,0.572-1.222,0.583-2.158V85.128z"/>
	<path fill="#999999" d="M63.688,82.217h-2.6v7.217h-1.061v-7.217h-2.595v-0.872h6.255V82.217z"/>
	<path fill="#999999" d="M71.949,87.317h-3.389l-0.762,2.116h-1.1l3.088-8.089h0.934l3.094,8.089h-1.094L71.949,87.317z
		 M68.883,86.444h2.75l-1.379-3.783L68.883,86.444z"/>
	<path fill="#999999" d="M77.098,88.017l2.313-6.672h1.166l-3,8.089h-0.945l-2.994-8.089h1.162L77.098,88.017z"/>
	<path fill="#999999" d="M85.709,87.317H82.32l-0.76,2.116h-1.102l3.09-8.089h0.934l3.094,8.089h-1.094L85.709,87.317z
		 M82.643,86.444h2.75l-1.377-3.783L82.643,86.444z"/>
	<path fill="#999999" d="M89.809,89.434h-1.066v-8.089h1.066V89.434z"/>
	<path fill="#999999" d="M92.832,88.562h3.834v0.872H91.76v-8.089h1.072V88.562z"/>
	<path fill="#999999" d="M102.453,87.317h-3.389l-0.76,2.116h-1.102l3.09-8.089h0.934l3.094,8.089h-1.094L102.453,87.317z
		 M99.387,86.444h2.75l-1.377-3.783L99.387,86.444z"/>
	<path fill="#999999" d="M105.408,89.434v-8.089h2.645c0.879,0,1.539,0.182,1.98,0.545c0.443,0.362,0.664,0.899,0.664,1.61
		c0,0.378-0.107,0.713-0.322,1.003c-0.215,0.291-0.508,0.516-0.877,0.675c0.438,0.123,0.781,0.355,1.035,0.697
		c0.254,0.343,0.381,0.751,0.381,1.226c0,0.726-0.234,1.296-0.705,1.711s-1.135,0.622-1.994,0.622H105.408z M106.477,84.795h1.609
		c0.467,0,0.84-0.117,1.121-0.351c0.279-0.234,0.418-0.552,0.418-0.952c0-0.445-0.129-0.77-0.389-0.972s-0.654-0.304-1.184-0.304
		h-1.576V84.795z M106.477,85.65v2.911h1.76c0.496,0,0.889-0.129,1.176-0.386c0.287-0.258,0.43-0.612,0.43-1.064
		c0-0.974-0.529-1.461-1.588-1.461H106.477z"/>
	<path fill="#999999" d="M113.564,88.562h3.834v0.872h-4.906v-8.089h1.072V88.562z"/>
	<path fill="#999999" d="M123.186,85.695h-3.504v2.866h4.07v0.872h-5.139v-8.089h5.084v0.872h-4.016v2.605h3.504V85.695z"/>
</g>
</svg>
