<?xml version="1.0" encoding="utf-8"?>
<!-- Generator: Adobe Illustrator 16.0.0, SVG Export Plug-In . SVG Version: 6.00 Build 0)  -->
<!DOCTYPE svg PUBLIC "-//W3C//DTD SVG 1.1//EN" "http://www.w3.org/Graphics/SVG/1.1/DTD/svg11.dtd">
<svg version="1.1" id="Layer_1" xmlns="http://www.w3.org/2000/svg" xmlns:xlink="http://www.w3.org/1999/xlink" x="0px" y="0px"
	 width="23px" height="23px" viewBox="0 0 20 20" enable-background="new 0 0 20 20" xml:space="preserve">
<g>
	<g>
		<path fill="#000000" d="M18.273,6.277c-0.335,0-0.607,0.258-0.607,0.578v9.185c0,0.334-0.272,0.605-0.608,0.605H2.942
			c-0.334,0-0.608-0.271-0.608-0.605V6.855c0-0.32-0.27-0.578-0.607-0.578c-0.334,0-0.607,0.258-0.607,0.578v9.185
			c0,1.003,0.817,1.82,1.822,1.82h14.116c1.005,0,1.822-0.817,1.822-1.82V6.855C18.88,6.535,18.608,6.277,18.273,6.277z"/>
		<path fill="#000000" d="M13.696,8.843c-0.227-0.228-0.593-0.228-0.818,0l-2.346,2.345v-8.47c0-0.319-0.259-0.579-0.579-0.579
			c-0.319,0-0.579,0.26-0.579,0.579v8.47L7.029,8.843c-0.225-0.228-0.592-0.228-0.819,0c-0.225,0.225-0.225,0.592,0,0.817
			l3.334,3.335c0.008,0.007,0.021,0.011,0.029,0.019c0.047,0.042,0.098,0.079,0.157,0.104c0.142,0.062,0.303,0.062,0.445,0.002
			c0.064-0.028,0.122-0.068,0.172-0.115c0.005-0.006,0.01-0.007,0.014-0.009l3.335-3.335C13.921,9.436,13.921,9.068,13.696,8.843z"
			/>
	</g>
</g>
</svg>
