<?xml version="1.0" encoding="utf-8"?>
<!-- Generator: Adobe Illustrator 16.0.0, SVG Export Plug-In . SVG Version: 6.00 Build 0)  -->
<!DOCTYPE svg PUBLIC "-//W3C//DTD SVG 1.1//EN" "http://www.w3.org/Graphics/SVG/1.1/DTD/svg11.dtd">
<svg version="1.1" id="Layer_1" xmlns="http://www.w3.org/2000/svg" xmlns:xlink="http://www.w3.org/1999/xlink" x="0px" y="0px"
	 width="20px" height="20px" viewBox="0 0 20 20" enable-background="new 0 0 20 20" xml:space="preserve">
<g>
	<path fill="#FFFFFF" d="M16.291,5.586h-0.487V3.709c0-1.438-1.169-2.607-2.606-2.607H6.803c-1.437,0-2.606,1.169-2.606,2.607v1.877
		H3.709c-1.438,0-2.607,1.168-2.607,2.606v4.17c0,1.438,1.169,2.606,2.607,2.606h0.487v2.364c0,0.862,0.701,1.563,1.563,1.563h8.48
		c0.863,0,1.564-0.701,1.564-1.563V14.97h0.487c1.438,0,2.606-1.169,2.606-2.606v-4.17C18.897,6.755,17.729,5.586,16.291,5.586z
		 M5.239,3.709c0-0.862,0.701-1.564,1.564-1.564h6.395c0.862,0,1.564,0.702,1.564,1.564v1.877H5.239V3.709z M14.762,17.334
		c0,0.287-0.233,0.52-0.522,0.52h-8.48c-0.288,0-0.521-0.232-0.521-0.52v-5.145h9.523V17.334z M17.854,12.363
		c0,0.862-0.699,1.564-1.563,1.564h-0.487v-1.738h0.313c0.288,0,0.521-0.232,0.521-0.521c0-0.286-0.232-0.521-0.521-0.521H3.883
		c-0.288,0-0.521,0.235-0.521,0.521c0,0.289,0.233,0.521,0.521,0.521h0.313v1.738H3.709c-0.863,0-1.563-0.702-1.563-1.564v-4.17
		c0-0.862,0.7-1.564,1.563-1.564h12.582c0.863,0,1.563,0.702,1.563,1.564V12.363z"/>
	<path fill="#FFFFFF" d="M11.39,13.372H8.61c-0.289,0-0.521,0.232-0.521,0.521s0.233,0.521,0.521,0.521h2.779
		c0.289,0,0.521-0.232,0.521-0.521S11.679,13.372,11.39,13.372z"/>
	<path fill="#FFFFFF" d="M11.39,15.596H8.61c-0.289,0-0.521,0.232-0.521,0.521c0,0.288,0.233,0.521,0.521,0.521h2.779
		c0.289,0,0.521-0.232,0.521-0.521C11.911,15.828,11.679,15.596,11.39,15.596z"/>
	<path fill="#FFFFFF" d="M5.552,7.81H3.883c-0.288,0-0.521,0.234-0.521,0.522s0.233,0.521,0.521,0.521h1.669
		c0.287,0,0.521-0.233,0.521-0.521S5.838,7.81,5.552,7.81z"/>
</g>
</svg>
