<?xml version="1.0" encoding="utf-8"?>
<!-- Generator: Adobe Illustrator 16.0.0, SVG Export Plug-In . SVG Version: 6.00 Build 0)  -->
<!DOCTYPE svg PUBLIC "-//W3C//DTD SVG 1.1//EN" "http://www.w3.org/Graphics/SVG/1.1/DTD/svg11.dtd">
<svg version="1.1" id="Layer_1" xmlns="http://www.w3.org/2000/svg" xmlns:xlink="http://www.w3.org/1999/xlink" x="0px" y="0px"
	 width="30px" height="30px" viewBox="0 0 30 30" enable-background="new 0 0 30 30" xml:space="preserve">
<circle fill="#FFFFFF" stroke="#20744B" stroke-miterlimit="10" cx="15" cy="15" r="14.063"/>
<g>
	<path fill="#20744B" d="M7.721,9.562v10.877l8.684,1.522V8.038L7.721,9.562z M12.75,17.409l-0.871-1.548l-0.872,1.548h-0.991
		l1.367-2.427l-1.246-2.209h0.992l0.749,1.33l0.749-1.33h0.991l-1.245,2.209l1.367,2.427H12.75z"/>
	<g>
		<path fill="#20744B" d="M16.826,9.562v1.104h1.371v1.493h-1.371v0.898h1.371v1.493h-1.371v0.898h1.371v1.493h-1.371v0.898h1.371
			v1.492h-1.371v1.104h5.453V9.562H16.826z M21.29,19.334h-2.394v-1.492h2.394V19.334z M21.29,16.941h-2.394v-1.492h2.394V16.941z
			 M21.29,14.551h-2.394v-1.493h2.394V14.551z M21.29,12.159h-2.394v-1.493h2.394V12.159z"/>
	</g>
</g>
</svg>
