<?xml version="1.0" encoding="utf-8"?>
<!-- Generator: Adobe Illustrator 16.0.0, SVG Export Plug-In . SVG Version: 6.00 Build 0)  -->
<!DOCTYPE svg PUBLIC "-//W3C//DTD SVG 1.1//EN" "http://www.w3.org/Graphics/SVG/1.1/DTD/svg11.dtd">
<svg version="1.1" id="Layer_1" xmlns="http://www.w3.org/2000/svg" xmlns:xlink="http://www.w3.org/1999/xlink" x="0px" y="0px"
	 width="20px" height="20px" viewBox="0 0 20 20" enable-background="new 0 0 20 20" xml:space="preserve">
<path fill="#ffffff" d="M16.718,2.712H3.282c-0.313,0-0.569,0.255-0.569,0.569c0,1.585,0.679,3.099,1.865,4.153L7.071,9.65
	c0.433,0.384,0.681,0.937,0.681,1.515v5.552c0,0.454,0.507,0.726,0.886,0.475l3.357-2.239c0.16-0.106,0.255-0.284,0.255-0.475
	v-3.313c0-0.578,0.247-1.13,0.68-1.515l2.493-2.216c1.186-1.054,1.865-2.567,1.865-4.153C17.287,2.967,17.032,2.712,16.718,2.712z
	 M14.666,6.583L12.173,8.8c-0.676,0.6-1.063,1.462-1.063,2.365v3.009L8.89,15.653v-4.488c0-0.903-0.387-1.765-1.063-2.365
	L5.334,6.583c-0.799-0.71-1.309-1.684-1.446-2.732h12.225C15.975,4.899,15.466,5.873,14.666,6.583z"/>
</svg>
