<?xml version="1.0" encoding="utf-8"?>
<!-- Generator: Adobe Illustrator 16.0.0, SVG Export Plug-In . SVG Version: 6.00 Build 0)  -->
<!DOCTYPE svg PUBLIC "-//W3C//DTD SVG 1.1//EN" "http://www.w3.org/Graphics/SVG/1.1/DTD/svg11.dtd">
<svg version="1.1" id="Layer_1" xmlns="http://www.w3.org/2000/svg" xmlns:xlink="http://www.w3.org/1999/xlink" x="0px" y="0px"
	 width="30px" height="30px" viewBox="0 0 30 30" enable-background="new 0 0 30 30" xml:space="preserve">
<g>
	<path fill="#ffffff" d="M7.721,9.562v10.877l8.684,1.522V8.038L7.721,9.562z M12.75,17.409l-0.871-1.548l-0.872,1.548h-0.991
		l1.367-2.427l-1.246-2.209h0.992l0.749,1.33l0.749-1.33h0.991l-1.245,2.209l1.367,2.427H12.75z"/>
	<g>
		<path fill="#ffffff" d="M16.826,9.562v1.104h1.371v1.493h-1.371v0.898h1.371v1.493h-1.371v0.898h1.371v1.493h-1.371v0.898h1.371
			v1.492h-1.371v1.104h5.453V9.562H16.826z M21.29,19.334h-2.394v-1.492h2.394V19.334z M21.29,16.941h-2.394v-1.492h2.394V16.941z
			 M21.29,14.551h-2.394v-1.493h2.394V14.551z M21.29,12.159h-2.394v-1.493h2.394V12.159z"/>
	</g>
</g>
<g>
	<circle fill="#FFFFFF" stroke="#EC2A31" stroke-miterlimit="10" cx="15" cy="15" r="14.063"/>
</g>
<polygon fill="#EC2A31" points="16.826,9.562 16.826,10.666 17.063,10.666 18.197,10.666 18.896,10.666 21.063,10.666 21.29,10.666 
	21.29,12.159 21.063,12.159 18.896,12.159 18.197,12.159 17.063,12.159 16.826,12.159 16.826,13.057 16.917,13.057 18.197,13.057 
	21.104,13.057 21.104,13.058 21.29,13.058 21.29,14.551 21.104,14.551 18.896,14.551 16.917,14.551 16.917,14.55 16.826,14.55 
	16.826,15.448 18.197,15.448 21,15.448 21,15.449 21.29,15.449 21.29,16.941 21,16.941 18.896,16.941 18.197,16.941 16.826,16.941 
	16.826,17.84 18.197,17.84 21.29,17.84 21.29,17.842 21.29,19.334 18.896,19.334 16.826,19.334 16.826,20.436 22.279,20.436 
	22.279,9.562 "/>
<polygon fill="#EC2A31" points="16.404,21.962 7.721,20.438 7.721,9.562 16.404,8.038 "/>
<path fill="#FFFFFF" stroke="#FFFFFF" stroke-width="0.1" stroke-miterlimit="10" d="M13.465,15.372
	c-0.254-0.201-0.497-0.407-0.658-0.567c-0.209-0.209-0.396-0.413-0.559-0.606c0.254-0.782,0.365-1.185,0.365-1.4
	c0-0.913-0.33-1.1-0.825-1.1c-0.377,0-0.825,0.196-0.825,1.127c0,0.41,0.225,0.908,0.671,1.487c-0.11,0.333-0.239,0.717-0.382,1.149
	c-0.069,0.207-0.144,0.399-0.225,0.578c-0.064,0.029-0.127,0.058-0.187,0.089c-0.219,0.108-0.427,0.208-0.619,0.299
	c-0.88,0.415-1.459,0.689-1.459,1.234c0,0.395,0.428,0.638,0.825,0.638c0.511,0,1.284-0.685,1.848-1.833
	c0.585-0.232,1.314-0.403,1.887-0.511c0.46,0.354,0.969,0.693,1.216,0.693c0.682,0,0.825-0.396,0.825-0.725
	c0-0.65-0.743-0.65-1.1-0.65C14.152,15.273,13.855,15.306,13.465,15.372z M9.587,17.747c-0.158,0-0.263-0.072-0.275-0.086
	c0-0.196,0.582-0.471,1.143-0.738c0.035-0.017,0.073-0.034,0.109-0.051C10.152,17.471,9.744,17.747,9.587,17.747z M11.512,12.824
	c0-0.577,0.179-0.577,0.276-0.577c0.194,0,0.274,0,0.274,0.55c0,0.117-0.077,0.406-0.219,0.859
	C11.627,13.324,11.512,13.039,11.512,12.824z M11.724,15.779c0.016-0.046,0.034-0.096,0.049-0.146
	c0.102-0.305,0.194-0.58,0.276-0.827c0.114,0.125,0.236,0.254,0.37,0.385c0.051,0.053,0.179,0.168,0.35,0.313
	C12.429,15.579,12.069,15.672,11.724,15.779z M14.813,15.924c0,0.122,0,0.175-0.254,0.175c-0.076-0.014-0.248-0.117-0.463-0.262
	c0.077-0.01,0.135-0.014,0.167-0.014C14.669,15.823,14.785,15.863,14.813,15.924z"/>
</svg>
