<svg id="Layer_1" data-name="Layer 1" xmlns="http://www.w3.org/2000/svg" xmlns:xlink="http://www.w3.org/1999/xlink" viewBox="0 0 272 272"><defs><clipPath id="clip-path"><polygon points="63.031 113.035 61.292 104.602 66.036 103.748 67.774 112.181 63.031 113.035" fill="none"/></clipPath></defs><path d="M250.17008,103.15055a33.2415,33.2415,0,1,1-46.74787-4.416A33.20513,33.20513,0,0,1,250.17008,103.15055Z" fill="#f3f3f3"/><path d="M244.0704,108.186a25.33221,25.33221,0,1,1-35.62518-3.36583A25.30329,25.30329,0,0,1,244.0704,108.186Z" fill="#e7e7e7"/><path d="M243.56033,107.57748c-.115.1022-.906-.68671-2.45566-1.92319a26.88219,26.88219,0,0,0-7.19608-4.12771,25.93751,25.93751,0,0,0-5.51678-1.41527,25.37911,25.37911,0,0,0-6.507-.05165,24.83537,24.83537,0,0,0-6.91548,1.88008,24.58343,24.58343,0,0,0-3.35328,1.77749,24.75147,24.75147,0,0,0-5.85382,5.14767,24.705,24.705,0,0,0-2.19191,3.09959,24.83172,24.83172,0,0,0-2.7469,6.61972,25.3558,25.3558,0,0,0-.77763,6.46064,25.97323,25.97323,0,0,0,.7,5.65223,26.892,26.892,0,0,0,3.17746,7.66093c1.02932,1.69385,1.71113,2.57913,1.59423,2.67962-.08375.07692-.96165-.64068-2.21828-2.25353a23.42869,23.42869,0,0,1-3.87915-7.73213,25.3793,25.3793,0,0,1-.33336-12.88581,24.50229,24.50229,0,0,1,1.12321-3.61049,24.81712,24.81712,0,0,1,1.72457-3.55415,25.78783,25.78783,0,0,1,2.34064-3.36264,25.95645,25.95645,0,0,1,6.31383-5.55289,25.88351,25.88351,0,0,1,3.63357-1.89186,25.83017,25.83017,0,0,1,7.46925-1.91053,25.38188,25.38188,0,0,1,12.739,1.9733,23.4573,23.4573,0,0,1,7.17659,4.83237C243.0473,106.54117,243.64651,107.50348,243.56033,107.57748Z" fill="#dadada"/><path d="M234.14481,138.28334a3.948,3.948,0,0,1-.65818-.20976c-4.81228-1.98672-9.63462-3.94795-14.54775-5.676a1.08925,1.08925,0,0,1-.66142-.56939c-.35179-.70706-.72924-1.40131-1.09195-2.103a.727.727,0,0,1,.35169-1.11152c1.06249-.57591,2.16911-1.07159,3.18336-1.73505a7.34184,7.34184,0,0,0,2.77161-2.89045,4.02439,4.02439,0,0,0,.36283-2.38767c-.035-.23866-.08488-.281-.31269-.161q-3.58486,1.88772-7.17952,3.75687c-.17285.0903-.34475.18248-.51877.27048a.68543.68543,0,0,1-1.05988-.33889q-.4601-.86532-.90731-1.73746a.67161.67161,0,0,1,.324-1.04024c.95684-.50588,1.91787-1.00387,2.8772-1.50506,1.59017-.83076,3.18036-1.66149,4.80455-2.51a2.52323,2.52323,0,0,0-.94775-.49984,4.99422,4.99422,0,0,0-2.81964.04176,11.93619,11.93619,0,0,0-2.51007,1.025c-.7964.41293-1.59032.83063-2.38574,1.24545-.60224.31407-.92493.21572-1.23479-.37629q-.56982-1.08861-1.13745-2.17836a.70507.70507,0,0,1,.35141-1.12267q7.70007-4.024,15.40116-8.046a.71824.71824,0,0,1,1.14632.35661q.43221.81387.8533,1.63365c.27914.544.17945.85039-.36923,1.13788q-2.08527,1.09258-4.17248,2.1805c.00149.12519.1102.13161.17923.16751a6.99288,6.99288,0,0,1,2.17235,1.73561.319.319,0,0,0,.48161.0912c.925-.503,1.86274-.9828,2.79688-1.469.55947-.2912.8539-.202,1.1428.34613.29555.56074.5908,1.12169.88,1.68574a.68311.68311,0,0,1-.33259,1.061q-1.42366.74952-2.85172,1.49067c-.12.06263-.23017.09333-.16942.29543,1.06039,3.52746-.02825,6.43921-2.58257,8.92123-.25748.2502-.53832.47737-.8174.704-.27651.22459-.56451.435-.87862.67555.37335.138.71688.26717,1.06185.39231,4.31836,1.56643,8.544,3.3627,12.77107,5.15522.56169.23818.66218.68535.27878,1.18466Z" fill="#dadada"/><path d="M258.86282,57.80061a19.42606,19.42606,0,1,1-17.37656-21.238A19.40488,19.40488,0,0,1,258.86282,57.80061Z" fill="#f3f3f3"/><path d="M254.26393,57.33559a14.80392,14.80392,0,1,1-13.24192-16.185A14.787,14.787,0,0,1,254.26393,57.33559Z" fill="#e7e7e7"/><path d="M254.30715,56.8736a8.74824,8.74824,0,0,1-.21006-1.81064,15.71015,15.71015,0,0,0-1.24226-4.68618,15.15628,15.15628,0,0,0-1.67915-2.87377,14.83117,14.83117,0,0,0-2.65264-2.72483A14.5132,14.5132,0,0,0,244.9,42.67746a14.3652,14.3652,0,0,0-2.11664-.66275,14.46891,14.46891,0,0,0-4.54438-.31674,14.442,14.442,0,0,0-2.18866.3631,14.51283,14.51283,0,0,0-3.87925,1.57909,14.81978,14.81978,0,0,0-3.00389,2.332,15.177,15.177,0,0,0-2.06075,2.61365,15.71536,15.71536,0,0,0-1.87721,4.4685,8.677,8.677,0,0,1-.45825,1.76362,4.34683,4.34683,0,0,1,.02473-1.84775,13.69164,13.69164,0,0,1,1.61846-4.78937,14.83161,14.83161,0,0,1,5.21689-5.43395,14.31766,14.31766,0,0,1,1.96173-1.0171,14.4956,14.4956,0,0,1,2.18542-.744,15.07131,15.07131,0,0,1,2.359-.40941,15.16924,15.16924,0,0,1,4.90187.3413,15.12483,15.12483,0,0,1,2.27924.73225,15.09332,15.09332,0,0,1,3.86334,2.31822,14.83329,14.83329,0,0,1,4.41531,6.10387,13.709,13.709,0,0,1,.9415,4.96767A4.347,4.347,0,0,1,254.30715,56.8736Z" fill="#dadada"/><path d="M240.43749,65.2708a2.12014,2.12014,0,0,1-.26329-.26122c-1.81421-2.12644-3.63946-4.24315-5.56514-6.2706a.58487.58487,0,0,1-.17688-.4339c.00477-.424-.00585-.84811-.00761-1.27219a.39033.39033,0,0,1,.43992-.44525c.64867-.01543,1.29881.01829,1.94583-.05078a3.94169,3.94169,0,0,0,2.03159-.7037,2.16061,2.16061,0,0,0,.75733-1.05248c.04165-.12263.02814-.155-.11008-.15342-1.45005.017-2.90017.02754-4.35027.03985-.1047.00089-.20941.0029-.3141.0024-.28984-.00138-.41908-.12778-.4237-.42117q-.0083-.52609-.00876-1.05232c.00008-.28473.12559-.41415.40925-.418.58105-.00779,1.16216-.01078,1.74325-.01572.9632-.00819,1.92641-.01635,2.91021-.0247a1.35462,1.35462,0,0,0-.33075-.47068,2.68132,2.68132,0,0,0-1.35788-.6696,6.4084,6.4084,0,0,0-1.45038-.12394c-.48163.0026-.96324.00809-1.44487.01183-.36465.00284-.49483-.12309-.49815-.48182-.00408-.43978-.00863-.87955-.01092-1.31934-.00168-.3214.12244-.44789.44251-.45065q4.6644-.04022,9.32881-.07924c.32832-.00275.45566.12123.46068.45078q.00754.4947.00833.9895c.00038.32826-.1222.45034-.45475.45356q-1.26389.01225-2.52752.02179c-.02991.0602.02048.08985.04469.12389a3.75447,3.75447,0,0,1,.61384,1.36081c.02775.12308.07494.16472.20789.16138.56515-.01421,1.13066-.0142,1.696-.01815.33862-.00236.45752.11229.46156.44491.00413.34029.00807.6806.00833,1.02091.00023.29193-.1278.42237-.41843.42576-.57583.00672-1.1517.01047-1.72755.01508-.07269.00058-.13284-.01168-.15323.09977a4.48127,4.48127,0,0,1-3.41609,3.6324c-.18425.05661-.374.09651-.56286.1366-.18709.03973-.37621.06988-.58516.108.14469.15728.2773.303.41159.44719,1.68091,1.80476,3.2613,3.6967,4.8433,5.5872.21022.25121.14889.48951-.15646.6344Z" fill="#dadada"/><path d="M21.77063,202.96828a18.09059,18.09059,0,0,0-7.74023-2.66414,5.158,5.158,0,0,0-3.6612.67322.75276.75276,0,0,0-.377.66854.81638.81638,0,0,0,.358.45737,11.06646,11.06646,0,0,0,11.42042.865" fill="#dadada"/><path d="M21.57207,202.74929a37.75089,37.75089,0,0,1-4.99922-4.39857,12.64529,12.64529,0,0,1-3.13434-5.7965,2.33707,2.33707,0,0,1,.24774-1.9396c3.98492,3.11226,7.1153,7.13743,7.88582,12.13467" fill="#dadada"/><path d="M21.72939,202.93833a18.0779,18.0779,0,0,1,.09256-6.56372,8.87473,8.87473,0,0,1,3.49628-5.41617,7.7499,7.7499,0,0,1-.09245,5.14591,25.00744,25.00744,0,0,1-3.46677,7.29894" fill="#dadada"/><path d="M25.6359,209.9381a11.43733,11.43733,0,0,0-6.20734,3.14161,11.743,11.743,0,0,0-3.55068,6.09517c2.3261-.14366,4.2994-1.784,5.73064-3.62326,1.43119-1.83916,2.4228-3.85728,3.995-5.57756" fill="#dadada"/><path d="M26.48428,211.05768A15.30968,15.30968,0,0,1,28.252,196.576a18.435,18.435,0,0,1-1.76775,14.48164" fill="#dadada"/><path d="M31.64594,217.20367a11.07044,11.07044,0,0,0-10.5852,6.09319c-.13128.26222-.247.59525-.07131.83005a.78713.78713,0,0,0,.70191.20649,9.21034,9.21034,0,0,0,5.4606-2.81959,52.29949,52.29949,0,0,1,4.54064-4.3163" fill="#dadada"/><path d="M31.48119,216.86905a19.71353,19.71353,0,0,1-.19675-11.01268,5.36914,5.36914,0,0,1,2.35016-3.57458.461.461,0,0,1,.35952-.0631.47392.47392,0,0,1,.22726.26326,6.63427,6.63427,0,0,1,.55411,3.15939,19.80975,19.80975,0,0,1-.49514,3.19838c-.41271,1.9548-.63242,4.05552-1.70453,5.74139a11.6687,11.6687,0,0,0-.68159,1.261c-.203.42852-.20451.57934-.39052.92013" fill="#dadada"/><path d="M45.14407,218.90462a14.19909,14.19909,0,0,1,2.48854-11.67488c.17869-.23243.41552-.48154.70747-.4545.44685.0413.56266.63677.54267,1.0851a21.09641,21.09641,0,0,1-3.73868,11.04428" fill="#dadada"/><path d="M46.37592,219.74667a16.98228,16.98228,0,0,0,13.93551-2.83429,11.28263,11.28263,0,0,0-7.544-.92586,10.76339,10.76339,0,0,0-6.39153,3.76015" fill="#dadada"/><path d="M47.41472,217.18291a16.105,16.105,0,0,1,12.64749-7.3132,7.79009,7.79009,0,0,1-4.13663,4.57351,22.964,22.964,0,0,1-6.07111,1.77551,4.28028,4.28028,0,0,0-2.43975.96418" fill="#dadada"/><path d="M45.40447,204.74247a36.74,36.74,0,0,0,1.61747-7.407,12.33365,12.33365,0,0,0-1.47518-7.3267,16.12773,16.12773,0,0,0-.2158,14.98764" fill="#dadada"/><path d="M53.64386,200.57809c2.86205-5.20153,8.70089-9.35638,14.60918-9.93869-2.27919,5.67486-8.4949,10.06054-14.60918,9.93869" fill="#dadada"/><path d="M51.84336,201.59733c4.26818.65015,7.90465,3.37619,11.89338,5.02874a5.32855,5.32855,0,0,0,2.68875.515,2.10483,2.10483,0,0,0,1.3177-3.72342,5.75346,5.75346,0,0,0-1.95293-1.18466,21.7061,21.7061,0,0,0-13.57957-.757" fill="#dadada"/><path d="M49.37348,204.59093a5.03877,5.03877,0,0,1,2.06163,1.42871,22.24561,22.24561,0,0,0,9.01889,4.633c.34448.08563.79651.11971.96716-.19162.14916-.27191-.0396-.60109-.23315-.84332a12.41571,12.41571,0,0,0-5.44557-3.69672c-2.0814-.77509-3.88466-1.70926-6.369-1.50888" fill="#dadada"/><path d="M46.58622,186.51053a17.06877,17.06877,0,0,0,13.08569,4.4521.89709.89709,0,0,0,.59575-.21388c.32934-.35825-.06581-.91132-.44961-1.21048a15.075,15.075,0,0,0-13.23183-3.02774" fill="#dadada"/><path d="M49.89082,185.30109a18.23848,18.23848,0,0,1,16.32862-2.69426,12.96261,12.96261,0,0,1-7.781,3.416,24.62313,24.62313,0,0,1-8.54764-.72173" fill="#dadada"/><path d="M48.57741,176.99276c-.37785-3.84-.13259-6.87131-.39922-10.72942-.02125-.3082-.08755-.67906-.37587-.79007-.40148-.15468-.73616.33881-.86787.74844a12.29887,12.29887,0,0,0,1.63735,10.68647" fill="#dadada"/><path d="M48.3011,177.41709a22.57973,22.57973,0,0,0,6.36108-6.18245c1.25636-1.71907,2.31563-3.77849,2.03007-5.88857a6.0883,6.0883,0,0,0-4.58849,2.27858,12.80248,12.80248,0,0,0-2.3391,4.70616c-.5094,1.68955-.86589,3.42585-1.46356,5.08628" fill="#dadada"/><path d="M54.55078,175.68073a51.28918,51.28918,0,0,0,15.65441-9.23067,7.99225,7.99225,0,0,0-5.88036.45219,18.54228,18.54228,0,0,0-9.85571,8.73674" fill="#dadada"/><path d="M50.05832,179.51781a31.83292,31.83292,0,0,0,8.69252.04245,36.88582,36.88582,0,0,0,8.11489-2.69641.95255.95255,0,0,0,.55131-.4186.63441.63441,0,0,0-.19762-.69437,1.67643,1.67643,0,0,0-.692-.32433,15.02612,15.02612,0,0,0-8.76956.524,40.689,40.689,0,0,0-7.69954,3.56726" fill="#dadada"/><path d="M33.55735,186.6417A15.37606,15.37606,0,0,1,33.417,173.916a9.72128,9.72128,0,0,1,1.12613,6.32732c-.21921,2.17407-.88109,4.41157-.92393,6.59621" fill="#dadada"/><path d="M25.68111,182.66927A17.74884,17.74884,0,0,0,12.492,188.2878a12.32527,12.32527,0,0,0,7.222-1.339,36.73933,36.73933,0,0,0,6.189-4.14236" fill="#dadada"/><path d="M20.3857,180.89833c-2.40815-.19526-4.72522-.49343-7.04058.21613a8.44458,8.44458,0,0,0-5.36644,4.55017,12.72261,12.72261,0,0,0,6.60077-1.24645,37.96845,37.96845,0,0,0,5.80625-3.51985" fill="#dadada"/><path d="M28.22609,180.97933a22.2107,22.2107,0,0,0-6.91338-3.45294c-2.52246-.588-5.44557-.15352-7.2045,1.7477,2.04185,1.19826,4.51927,1.33978,6.88673,1.33791,2.36756-.00193,5.26991-.02869,7.50179.76116" fill="#dadada"/><path d="M28.239,181.09376c-3.70371-3.63675-5.10764-10.17-3.61759-15.14214A23.07284,23.07284,0,0,1,28.239,181.09376" fill="#dadada"/><path d="M38.423,170.78938c.6985-1.6238,1.18978-3.32811,1.81636-4.981a14.31427,14.31427,0,0,1,2.5897-4.5919,6.8203,6.8203,0,0,1,4.587-2.37726,18.47352,18.47352,0,0,1-8.90232,11.97609" fill="#dadada"/><path d="M36.58013,172.93652c-1.15592-1.591-2.49141-3.75068-4.05888-4.9382a6.79023,6.79023,0,0,0-5.5215-1.45019,12.86057,12.86057,0,0,0,9.58038,6.38839" fill="#dadada"/><path d="M36.94873,170.92181a27.472,27.472,0,0,1-1.8271-5.91687,9.23039,9.23039,0,0,1,.92624-6.01643c2.033,3.843,2.68782,7.96826,1.00449,11.97686" fill="#dadada"/><path d="M38.4417,158.98851c1.15146-3.80976,4.63992-6.61465,8.406-7.9019a3.13719,3.13719,0,0,1,1.47386-.22092,1.2789,1.2789,0,0,1,1.08626.9067c.13739.648-.398,1.22877-.90146,1.65927a28.614,28.614,0,0,1-10.06468,5.55685" fill="#dadada"/><path d="M38.48322,155.87284a27.28679,27.28679,0,0,1,1.0986-7.27559,9.19772,9.19772,0,0,1,4.5788-5.52922c.381,2.48089-.71359,4.94905-2.0336,7.08386s-2.911,4.14979-3.704,6.53117" fill="#dadada"/><path d="M38.423,157.56371c-.95174-2.77642-1.05014-6.303-2.71265-8.72181-1.1622-1.69076-3.02328-2.84261-4.02458-4.63337a7.04814,7.04814,0,0,0,.23408,5.25984,15.22562,15.22562,0,0,0,3.07564,4.40314c1.23026,1.3139,2.28376,2.30231,3.42751,3.6922" fill="#dadada"/><path d="M38.4417,239.3277c-.074.00005-.1381-18.52153-.14328-41.36376-.00506-22.85005.05066-41.36766.12456-41.36766s.138,18.5175.14322,41.36761C38.57132,220.80617,38.51554,239.3277,38.4417,239.3277Z" fill="#dadada"/><path d="M54.62727,183.84689a3.95787,3.95787,0,0,1-.69635.26144c-.50032.16883-1.14414.386-1.91647.64657-1.616.55054-3.83576,1.34766-6.24506,2.335-2.38557,1.02322-4.63535,1.8542-5.91649,2.9643a4.34726,4.34726,0,0,0-1.18885,1.57282c-.1838.43484-.21662.70092-.24107.69618a.53529.53529,0,0,1,.00793-.19427,2.95087,2.95087,0,0,1,.136-.53974,4.18022,4.18022,0,0,1,1.16027-1.67656,10.39765,10.39765,0,0,1,2.56717-1.59467c1.02679-.47929,2.16509-.97927,3.37354-1.47574,2.41658-.99034,4.65363-1.76179,6.28784-2.26729.81661-.25473,1.48306-.4425,1.94506-.56639A3.96412,3.96412,0,0,1,54.62727,183.84689Z" fill="#dadada"/><path d="M59.93259,170.81532a1.14991,1.14991,0,0,1-.19515.20836c-.15776.14813-.35423.3327-.59431.55825-.55208.50153-1.30317,1.18384-2.21878,2.01559-1.91582,1.7058-4.51394,4.01923-7.38485,6.57545-2.88275,2.566-5.37387,5.01777-7.10037,6.86376-.86452.92195-1.54523,1.68564-2.0097,2.21878l-.53661.61287a1.14544,1.14544,0,0,1-.20043.20324,1.14446,1.14446,0,0,1,.15853-.23716c.11217-.1489.27532-.37081.49855-.64574.4408-.55484,1.10146-1.33945,1.95045-2.28018a93.56234,93.56234,0,0,1,7.06134-6.93529c2.89266-2.56007,5.525-4.85969,7.43781-6.51758.93886-.80554,1.709-1.46626,2.27506-1.95193.25357-.21029.46111-.38237.62757-.52053A1.15162,1.15162,0,0,1,59.93259,170.81532Z" fill="#dadada"/><path d="M46.42758,182.7821c-.07555-.0337.52663-1.4242,1.12662-3.18258.60571-1.75816.89062-3.24216.96738-3.22966a10.85385,10.85385,0,0,1-.71381,3.3154,21.61413,21.61413,0,0,1-.89662,2.226A3.46929,3.46929,0,0,1,46.42758,182.7821Z" fill="#dadada"/><path d="M38.45855,193.99256a3.32026,3.32026,0,0,1-.44431-.51568c-.30138-.3865-.68286-.87569-1.138-1.45921-.95593-1.2356-2.27737-2.94112-3.7585-4.80771-1.48218-1.86675-2.84338-3.541-3.82976-4.75241-.46507-.57565-.85488-1.05818-1.16291-1.4394a3.31285,3.31285,0,0,1-.4012-.5496,3.32017,3.32017,0,0,1,.48044.48193c.29663.32141.71656.79458,1.22861,1.38537,1.02431,1.1812,2.41045,2.83859,3.8945,4.70771,1.483,1.86884,2.78231,3.59479,3.7003,4.86051.45907.63275.8246,1.14914,1.0704,1.511A3.3243,3.3243,0,0,1,38.45855,193.99256Z" fill="#dadada"/><path d="M34.90963,189.43656a6.52394,6.52394,0,0,1-1.48675-2.78341,7.94555,7.94555,0,0,1-.33711-2.80621l.11817.00958c-.05291.21453-.09168.32758-.11277.32417s-.02225-.12285-.00468-.34322l.11828.00958a12.78777,12.78777,0,0,0,.47477,2.72983A20.80605,20.80605,0,0,0,34.90963,189.43656Z" fill="#dadada"/><path d="M30.328,183.6731a4.78763,4.78763,0,0,0-1.038-.603,6.94126,6.94126,0,0,0-2.882-.22918,17.802,17.802,0,0,0-2.90219.46833,8.78126,8.78126,0,0,1-1.19419.28656,4.16107,4.16107,0,0,1,1.14337-.46888,13.25921,13.25921,0,0,1,2.93291-.553,6.28757,6.28757,0,0,1,2.97306.32064A1.83973,1.83973,0,0,1,30.328,183.6731Z" fill="#dadada"/><path d="M29.24193,182.27638c-.02049.04163-.60467-.24234-1.59038-.57911a16.00587,16.00587,0,0,0-8.01429-.611c-1.02536.18353-1.64578.37554-1.65971.33138a1.512,1.512,0,0,1,.42169-.17973,9.90371,9.90371,0,0,1,1.201-.33727,14.1436,14.1436,0,0,1,8.1161.61876,9.9275,9.9275,0,0,1,1.136.5154A1.51539,1.51539,0,0,1,29.24193,182.27638Z" fill="#dadada"/><path d="M38.423,176.36986a32.92427,32.92427,0,0,1-1.15972-4.02859,32.91437,32.91437,0,0,1-.90042-4.09478,32.90773,32.90773,0,0,1,1.15983,4.029A32.89558,32.89558,0,0,1,38.423,176.36986Z" fill="#dadada"/><path d="M38.49682,176.36986a19.408,19.408,0,0,0-1.28549-2.41194,10.61642,10.61642,0,0,0-1.892-1.9526,1.76123,1.76123,0,0,1,.73021.37659,5.88471,5.88471,0,0,1,1.38086,1.42221A5.346,5.346,0,0,1,38.49682,176.36986Z" fill="#dadada"/><path d="M38.4417,229.45426c-.02891.00435-.08342-.44531-.29217-1.2318a17.54373,17.54373,0,0,0-1.23764-3.20664,44.38347,44.38347,0,0,0-6.56685-9.25165c-1.4661-1.675-2.88853-3.25521-4.09577-4.76817a33.47638,33.47638,0,0,1-2.92884-4.22412,20.282,20.282,0,0,1-1.47849-3.13462c-.136-.38639-.23568-.68787-.29035-.89656a1.50829,1.50829,0,0,1-.07616-.31987c.024-.0076.15864.42383.46381,1.17888a22.92566,22.92566,0,0,0,1.54462,3.07663,35.42045,35.42045,0,0,0,2.95747,4.16493c1.212,1.49727,2.63661,3.06887,4.1053,4.7468a42.061,42.061,0,0,1,6.53574,9.34543,15.99942,15.99942,0,0,1,1.16831,3.2639,9.00488,9.00488,0,0,1,.16393.92906A1.51044,1.51044,0,0,1,38.4417,229.45426Z" fill="#dadada"/><path d="M53.0675,212.93423a6.72989,6.72989,0,0,1-.7665.43033,16.76005,16.76005,0,0,0-1.98833,1.31428,22.81738,22.81738,0,0,0-2.611,2.38161c-.91649.96815-1.86052,2.09246-2.82416,3.29722-1.92638,2.41707-3.7281,4.55589-4.807,6.26312-.54773.84684-.946,1.56087-1.20686,2.06173a6.60948,6.60948,0,0,1-.422.77174.74224.74224,0,0,1,.071-.21745c.05711-.13783.13453-.34482.25754-.60048a19.52908,19.52908,0,0,1,1.14034-2.11658,68.94966,68.94966,0,0,1,4.75825-6.32964c.96545-1.20707,1.921-2.33364,2.85478-3.30036a21.20544,21.20544,0,0,1,2.67576-2.36244,13.96218,13.96218,0,0,1,2.05336-1.255c.254-.12753.46128-.20578.59828-.26486A.73709.73709,0,0,1,53.0675,212.93423Z" fill="#dadada"/><path d="M53.35378,218.29357a11.15649,11.15649,0,0,1-1.62022.23535,21.38094,21.38094,0,0,0-3.84247.75681,11.55086,11.55086,0,0,0-3.44045,1.80546c-.7931.61281-1.167,1.11985-1.20388,1.09023a1.23778,1.23778,0,0,1,.24-.37285,6.09968,6.09968,0,0,1,.84415-.864,10.41823,10.41823,0,0,1,3.478-1.91367,17.35623,17.35623,0,0,1,3.90585-.6904A8.9421,8.9421,0,0,1,53.35378,218.29357Z" fill="#dadada"/><path d="M43.71966,221.59266c-.08453-.0479.64569-1.16318,1.212-2.6632.53148-1.51379.65587-2.84118.75124-2.82587a2.569,2.569,0,0,1-.027.86931,9.31967,9.31967,0,0,1-.47262,2.0478,9.91163,9.91163,0,0,1-.93962,1.87826A2.616,2.616,0,0,1,43.71966,221.59266Z" fill="#dadada"/><path d="M57.80434,198.54636a1.2216,1.2216,0,0,1-.25925.13783c-.201.0913-.45291.20578-.76143.346-.33353.143-.73837.32438-1.19441.56491-.45781.23606-.99188.47933-1.548.81341q-.42365.24078-.88395.50252c-.30638.17627-.60962.38551-.93225.58749-.65163.3952-1.30426.88208-2.001,1.379a34.33277,34.33277,0,0,0-7.7067,7.97475c-.47289.71347-.9372,1.38246-1.30993,2.0472-.19086.3294-.38964.63963-.55533.95185q-.24556.46864-.472.90064c-.31481.56722-.53964,1.10933-.76,1.5749-.22477.464-.39211.87471-.52366,1.21291-.12957.3131-.23535.56866-.31982.77267a1.2178,1.2178,0,0,1-.1288.26382,1.19716,1.19716,0,0,1,.078-.28193c.07219-.20914.16261-.47125.27345-.79217.117-.34509.271-.76325.48364-1.2351.20825-.4735.42229-1.02415.72806-1.60007q.22012-.438.45957-.91407c.16189-.31685.35743-.63171.54542-.96567.367-.67416.8274-1.35245,1.29831-2.075a33.077,33.077,0,0,1,7.76292-8.03295c.70593-.4952,1.368-.97845,2.02914-1.36831.32741-.19928.63533-.40544.94639-.57812q.46726-.25522.89789-.49052c.56518-.32521,1.10812-.55808,1.57419-.78241.46442-.22863.87707-.39685,1.218-.5256.31712-.12174.57592-.22108.78258-.30037A1.19618,1.19618,0,0,1,57.80434,198.54636Z" fill="#dadada"/><path d="M46.2289,206.302a1.86266,1.86266,0,0,1,.63644-.94788,4.01782,4.01782,0,0,1,2.56459-.984,7.012,7.012,0,0,1,2.69877.52725,3.84484,3.84484,0,0,1,1.0203.49575,6.27038,6.27038,0,0,1-1.08252-.317,8.15452,8.15452,0,0,0-2.628-.43843,4.17631,4.17631,0,0,0-2.44961.85979A7.55186,7.55186,0,0,0,46.2289,206.302Z" fill="#dadada"/><path d="M44.49877,208.08693a6.8467,6.8467,0,0,0,.565-4.84233,1.57009,1.57009,0,0,1,.30077.69,4.89836,4.89836,0,0,1-.4142,3.55008C44.7242,207.8941,44.52454,208.10549,44.49877,208.08693Z" fill="#dadada"/><path d="M25.6495,232.1081c.39911,7.07824,2.5321,14.27669,5.81286,21.55476H45.72908a61.98021,61.98021,0,0,0,5.46743-21.55476Z" fill="#dadada"/><path d="M48.88429,243.56179c0,.07395-4.69735.13386-10.49049.13386-5.79518,0-10.49149-.05991-10.49149-.13386s4.69631-.13381,10.49149-.13381C44.18694,243.428,48.88429,243.48789,48.88429,243.56179Z" fill="#f9f9f9"/><path d="M48.56546,246.126c0,.07395-4.40369.13392-9.83456.13392-5.43274,0-9.83544-.06-9.83544-.13392,0-.07384,4.4027-.13381,9.83544-.13381C44.16177,245.99218,48.56546,246.05215,48.56546,246.126Z" fill="#f9f9f9"/><path d="M31.69253,236.75551a40.38812,40.38812,0,0,1,0,6.57231,40.4182,40.4182,0,0,1,0-6.57231Z" fill="#f9f9f9"/><path d="M39.3365,236.75551a43.30681,43.30681,0,0,1,0,6.80628,43.34553,43.34553,0,0,1,0-6.80628Z" fill="#f9f9f9"/><path d="M46.51254,236.6978a45.06806,45.06806,0,0,1,0,6.942,45.08485,45.08485,0,0,1,0-6.942Z" fill="#f9f9f9"/><path d="M50.74349,236.75551c0,.0739-5.50939.13386-12.3041.13386-6.797,0-12.30526-.06-12.30526-.13386s5.50823-.13392,12.30526-.13392C45.2341,236.62159,50.74349,236.68161,50.74349,236.75551Z" fill="#f9f9f9"/><path d="M263.77113,255.17588c0,.07918-56.05117.14339-125.17779.14339-69.15063,0-125.18979-.06421-125.18979-.14339s56.03916-.14334,125.18979-.14334C207.72,255.03254,263.77113,255.0967,263.77113,255.17588Z" fill="#152328"/><rect x="211.42229" y="198.54108" width="49.6174" height="56.6348" fill="#2c4852"/><path d="M240.31686,228.16774c-.00582-.02522-.02657-.02834-.04727-.03578a1.0499,1.0499,0,0,1-.775-1.105q-.00054-3.72027-.00018-7.44054c0-.35334-.08708-.47094-.42533-.57545a2.77763,2.77763,0,0,1-2.0091-2.7253c-.00031-1.28622.01174-2.57261-.00664-3.85857a.85908.85908,0,0,1,.52771-.93517h.29312a.91787.91787,0,0,1,.40506.23861.807.807,0,0,1,.17388.54457q-.00228,1.832-.0003,3.66405c.00025.2954.1188.41139.41565.41354.16283.00117.32568.00027.48853.0002.384-.00017.47933-.09562.47936-.4808q.00018-1.8076-.00048-3.6152a.71469.71469,0,0,1,.46764-.72687c.02011-.00826.0413-.01241.04592-.0381h.32569a.793.793,0,0,1,.55877.87149c-.01464,1.18843-.00532,2.37716-.00487,3.56577.00012.30234.12034.42164.42456.42353.16281.001.32564.00029.48846.00017.37753-.00028.479-.10313.479-.48625.00009-1.2049.00164-2.40979-.00141-3.61468a.7609.7609,0,0,1,.20719-.56219,1.76856,1.76856,0,0,1,.32355-.19784h.29313a.72694.72694,0,0,1,.56329.74372c-.00383,1.37232.00387,2.74467-.00321,4.117a2.76678,2.76678,0,0,1-2.00476,2.65925c-.33287.09826-.41975.21334-.41978.55826q-.00018,2.51412-.00006,5.02824c0,.82448.00206,1.649-.0008,2.47344a1.0686,1.0686,0,0,1-.71349,1.04048c-.05188.01844-.1212-.00709-.157.05541Z" fill="#88a3aa"/><path d="M233.15165,211.492a.92294.92294,0,0,0,.28511.07931,2.61013,2.61013,0,0,1,1.34153,1.0323,4.79653,4.79653,0,0,1,.83774,2.24355,5.81054,5.81054,0,0,1-.41292,3.12023,3.67754,3.67754,0,0,1-.97232,1.34538.83092.83092,0,0,0-.3.6718q.00662,3.541.00225,7.082a1.06592,1.06592,0,0,1-.70643,1.04448c-.05719.02074-.1302-.00516-.17265.05675h-.39083c-.00988-.01115-.01759-.02763-.03-.03268a1.07009,1.07009,0,0,1-.78425-1.16618q0-3.48425.00286-6.96849a.86154.86154,0,0,0-.31231-.69956,3.64748,3.64748,0,0,1-.96087-1.334,5.8102,5.8102,0,0,1-.41273-3.12039,4.789,4.789,0,0,1,.83838-2.24361,2.61724,2.61724,0,0,1,1.32667-1.02648c.07854-.02534.17259-.01212.2345-.08432Z" fill="#88a3aa"/><g opacity="0.3"><rect x="253.44385" y="198.54108" width="7.59585" height="56.6348"/></g><path d="M249.19633,199.03071a2.289,2.289,0,0,1-.20154.36734c-.14185.235-.34851.58374-.62973,1.02327a30.13733,30.13733,0,0,1-2.70291,3.49738,22.76163,22.76163,0,0,1-5.04365,4.18646,14.33525,14.33525,0,0,1-15.35106.03486,22.64966,22.64966,0,0,1-5.05731-4.17055,30.01586,30.01586,0,0,1-2.71084-3.49089c-.28215-.43892-.48936-.78726-.63164-1.02183a2.2897,2.2897,0,0,1-.20226-.367,2.31113,2.31113,0,0,1,.2511.33606q.25473.3735.675.98984a33.908,33.908,0,0,0,2.76739,3.41589,23.03974,23.03974,0,0,0,5.04179,4.08029,14.19563,14.19563,0,0,0,15.08377-.03436,23.16407,23.16407,0,0,0,5.02873-4.09632,34.07058,34.07058,0,0,0,2.75957-3.42255l.67311-.99133A2.31009,2.31009,0,0,1,249.19633,199.03071Z" fill="#152328"/><polygon points="231.862 254.953 180.711 254.953 187.039 206.554 225.426 206.554 231.862 254.953" fill="#152328"/><polygon points="249.451 255.176 206.286 254.953 211.352 219.586 244.115 219.586 249.451 255.176" fill="#3464d9"/><polygon points="244.115 219.586 248.469 219.586 256.693 255.176 248.469 255.176 244.115 219.586" fill="#3464d9"/><g opacity="0.3"><polygon points="244.115 219.586 248.469 219.586 256.693 255.176 248.469 255.176 244.115 219.586"/></g><path d="M230.77688,247.06282c-.00583-.02522-.02658-.02834-.04727-.03578a1.0499,1.0499,0,0,1-.775-1.105q-.00054-3.72027-.00018-7.44054c0-.35334-.08708-.47093-.42533-.57545a2.77763,2.77763,0,0,1-2.0091-2.7253c-.00032-1.28622.01174-2.57261-.00664-3.85857a.85908.85908,0,0,1,.52771-.93517h.29312a.91771.91771,0,0,1,.405.23862.807.807,0,0,1,.17388.54456q-.00226,1.832-.00029,3.66405c.00025.2954.1188.41139.41565.41354.16283.00117.32568.00027.48852.0002.384-.00017.47934-.09562.47937-.4808q.00018-1.8076-.00048-3.6152a.71466.71466,0,0,1,.46764-.72686c.02011-.00826.0413-.01242.04592-.03811h.32569a.79307.79307,0,0,1,.55877.87149c-.01464,1.18843-.00533,2.37716-.00487,3.56577.00012.30234.12033.42164.42456.42353.16281.001.32564.00029.48846.00017.37753-.00027.479-.10313.479-.48625q.00014-1.80734-.00141-3.61468a.76086.76086,0,0,1,.20719-.56219,1.76856,1.76856,0,0,1,.32355-.19784h.29312a.72693.72693,0,0,1,.56329.74372c-.00382,1.37232.00387,2.74468-.0032,4.117a2.76679,2.76679,0,0,1-2.00476,2.65925c-.33288.09826-.41975.21334-.41978.55826q-.0002,2.51412-.00006,5.02824c0,.82448.00206,1.649-.0008,2.47344a1.06864,1.06864,0,0,1-.71349,1.04049c-.05188.01843-.1212-.0071-.157.0554Z" fill="#fff"/><path d="M223.61167,230.38706a.92294.92294,0,0,0,.28511.07931,2.61013,2.61013,0,0,1,1.34153,1.0323,4.79653,4.79653,0,0,1,.83774,2.24355,5.81045,5.81045,0,0,1-.41293,3.12023,3.67732,3.67732,0,0,1-.97231,1.34538.83089.83089,0,0,0-.3.6718q.0066,3.541.00225,7.082a1.06591,1.06591,0,0,1-.70643,1.04447c-.05719.02074-.1302-.00516-.17265.05675h-.39083c-.00988-.01115-.01759-.02763-.03-.03267a1.07012,1.07012,0,0,1-.78426-1.16619q0-3.48424.00287-6.96849a.86156.86156,0,0,0-.31231-.69956,3.64736,3.64736,0,0,1-.96087-1.334,5.81018,5.81018,0,0,1-.41273-3.12039,4.7889,4.7889,0,0,1,.83838-2.24361,2.61725,2.61725,0,0,1,1.32667-1.02648c.07854-.02533.17259-.01212.2345-.08432Z" fill="#fff"/><path d="M239.53114,219.78439a.43.43,0,0,1,.00214.1283l-.02241.37406c-.02191.32862-.06387.81253-.12868,1.43482a39.00744,39.00744,0,0,1-.88319,5.227,27.45923,27.45923,0,0,1-1.10454,3.4976c-.24807.61161-.51431,1.24116-.83021,1.87a12.76718,12.76718,0,0,1-1.09733,1.87958,12.9635,12.9635,0,0,1-3.306,3.28522,9.07713,9.07713,0,0,1-2.22264,1.11126,7.29224,7.29224,0,0,1-2.54355.3099,9.47917,9.47917,0,0,1-4.7262-1.61758,12.19287,12.19287,0,0,1-3.25477-3.3372,24.92165,24.92165,0,0,1-3.109-7.21706,37.03469,37.03469,0,0,1-.97823-5.20984c-.07439-.62118-.12241-1.10437-.15071-1.43245l-.02781-.37361a.06461.06461,0,1,1,.02913-.00325l.05606.37025q.07516.52474.2039,1.42414a41.08283,41.08283,0,0,0,1.06319,5.17091,25.224,25.224,0,0,0,3.13187,7.12224,12.00368,12.00368,0,0,0,3.19226,3.25212,9.23822,9.23822,0,0,0,4.58431,1.56494,7.03088,7.03088,0,0,0,2.44377-.29558,8.84244,8.84244,0,0,0,2.15182-1.0725,12.78154,12.78154,0,0,0,3.24678-3.20427,12.611,12.611,0,0,0,1.08737-1.83933c.31662-.62047.58462-1.242.83522-1.846a28.03591,28.03591,0,0,0,1.12872-3.45917,43.536,43.536,0,0,0,.969-5.19057l.182-1.42727.05072-.37114A.43156.43156,0,0,1,239.53114,219.78439Z" fill="#152328"/><path d="M246.332,219.58605c.078-.01377,1.54363,7.92315,3.27316,17.72528,1.73019,9.80555,3.069,17.76312,2.99106,17.77683-.078.01382-1.5433-7.92139-3.27343-17.727C247.59316,227.559,246.254,219.59982,246.332,219.58605Z" fill="#152328"/><path d="M48.48441,59.89021l-3.094-5.45268a14.60958,14.60958,0,1,0-3.49914,3.89236l-.005.00656Z" fill="#fff"/><path d="M48.48441,59.89021c-.32323-.07384-2.40594-.54927-6.60871-1.50867l-.06982-.016.04367-.05732.0049-.0065.0652.06482a14.93829,14.93829,0,0,1-3.00032,1.80926,14.63285,14.63285,0,0,1-4.001,1.14281,13.14208,13.14208,0,0,1-2.31029.117c-.3974-.02252-.80208-.03215-1.2101-.06629q-.60809-.09186-1.233-.18623A14.7226,14.7226,0,0,1,21.046,55.32964a14.54916,14.54916,0,0,1-2.46629-5.63737,14.87773,14.87773,0,0,1,.17213-6.49164,14.39748,14.39748,0,0,1,3.12784-6.00156l.596-.65571c.19592-.22042.42956-.40225.64183-.60461.22219-.19129.42262-.40792.66149-.577l.70043-.52366a6.176,6.176,0,0,1,.72514-.47967q.371-.22524.7403-.44949l.775-.37637a6.817,6.817,0,0,1,.78253-.34779,14.88891,14.88891,0,0,1,6.54125-1.005,14.39651,14.39651,0,0,1,6.00381,1.77462,14.80458,14.80458,0,0,1,6.92594,8.52336,15.77123,15.77123,0,0,1,.63374,4.74609,14.50949,14.50949,0,0,1-.71485,4.09737,14.794,14.794,0,0,1-1.46384,3.13968l.00082-.04532c1.94968,3.49364,2.90059,5.19773,3.05516,5.47465-.15837-.27456-1.13351-1.965-3.13269-5.43065l-.0131-.02269.01387-.02274a14.50027,14.50027,0,0,0,2.126-7.194,15.6792,15.6792,0,0,0-.64388-4.69961,14.671,14.671,0,0,0-6.86971-8.41681,14.23822,14.23822,0,0,0-5.93427-1.74539,14.7229,14.7229,0,0,0-6.45959.99744,6.67786,6.67786,0,0,0-.77245.34383q-.38151.18543-.76512.37174l-.73076.44426a6.04879,6.04879,0,0,0-.71585.47378l-.69144.51717c-.236.16679-.43358.3811-.65307.56986-.20947.19989-.44041.37918-.63374.597l-.58837.6475a14.22543,14.22543,0,0,0-3.08968,5.9248,14.71234,14.71234,0,0,0-.175,6.41136,14.39222,14.39222,0,0,0,2.42962,5.57277A14.58729,14.58729,0,0,0,30.193,61.039q.61832.0954,1.22018.18816c.4039.035.80466.0457,1.19832.06944A13.036,13.036,0,0,0,34.901,61.189a14.56912,14.56912,0,0,0,3.97231-1.11605,14.93853,14.93853,0,0,0,2.98952-1.77964l.28061-.21436-.21541.27923-.005.00644-.02615-.07323C46.08628,59.30812,48.16245,59.812,48.48441,59.89021Z" fill="#152328"/><polygon points="203.754 33.564 194.933 26.097 186.118 33.564 177.3 26.097 168.486 33.564 159.673 26.097 150.858 33.564 142.043 26.097 133.229 33.564 124.413 26.097 115.599 33.564 106.785 26.097 97.972 33.564 89.158 26.097 89.158 34.052 89.158 38.082 89.158 242.968 89.158 243.862 89.158 254.953 97.979 247.486 106.8 254.953 115.615 247.486 124.433 254.953 133.247 247.486 142.06 254.953 150.875 247.486 159.69 254.953 168.505 247.486 177.32 254.953 186.135 247.486 194.948 254.953 203.761 247.486 212.575 254.953 212.575 246.998 212.575 243.862 212.575 242.968 212.575 38.082 212.575 34.052 212.575 26.097 203.754 33.564" fill="#f9f9f9"/><path d="M203.75442,33.56392c.1734-.14763,2.78936-2.37505,8.79956-7.4926l.05463-.04653,0,.07186c.012,27.85846.04907,113.79.09873,228.8566l.00017.2848-.21739-.18414c-2.71817-2.302-5.75427-4.87328-8.81554-7.4659h.17279c-2.722,2.30694-5.75531,4.8778-8.812,7.46849l-.0875.07411-.08749-.07411c-2.72774-2.31057-5.76005-4.87912-8.81416-7.46618h.1767c-2.73275,2.3157-5.76291,4.88337-8.81338,7.46827l-.08921.0756-.08931-.0756c-2.73909-2.31971-5.76826-4.885-8.81636-7.46639h.17978c-2.74371,2.32483-5.76974,4.889-8.81344,7.468l-.09064.07676-.09063-.07676c-2.75005-2.32929-5.77459-4.891-8.81554-7.46661h.18221c-2.7556,2.33452-5.77756,4.89465-8.81476,7.46777l-.09169.07769-.09168-.07769c-2.76089-2.33921-5.77976-4.897-8.81278-7.46678h.18392c-2.76739,2.3446-5.78428,4.90049-8.81433,7.4676l-.09234.0782-.09234-.0782c-2.77472-2.34961-5.79017-4.90313-8.81791-7.467h.18491c-2.78005,2.35506-5.79176,4.90643-8.81487,7.46738l-.09262.07852-.09267-.07852c-2.78385-2.35655-5.79012-4.90142-8.80678-7.45511l-.01426-.012h.18523c-2.97272,2.51645-5.935,5.0241-8.82109,7.46716l-.236.19983.00005-.30919c.0119-87.51621.0228-167.62081.03112-228.8566l.00005-.24223.18474.1566c3.12763,2.65131,5.99859,5.085,8.81207,7.47H97.902c3.15328-2.66987,6.01582-5.09371,8.81559-7.4643l.06778-.05743.06773.05743c3.179,2.69548,6.02932,5.11232,8.81047,7.47047h-.13c3.213-2.71981,6.05354-5.12433,8.81718-7.46381l.06218-.05258.062.05258c3.24777,2.75346,6.07315,5.14878,8.8124,7.47108h-.11762c3.2927-2.78694,6.104-5.1664,8.81763-7.46315l.05544-.04691.05534.04691c3.34172,2.8338,6.13268,5.20054,8.81113,7.47185h-.10286c3.40807-2.88358,6.18008-5.22895,8.8195-7.46221l.0473-.04.04714.04,8.8076,7.473h-.08458c3.59529-3.04111,6.30938-5.33687,8.82022-7.46067l.03684-.03122.03673.03117c3.74533,3.17745,6.41685,5.44392,8.81112,7.47515h-.06018c4.0097-3.3888,6.64009-5.61187,8.82352-7.45714l.02164-.01829.02147.01829c5.98582,5.09684,8.6254,7.34442,8.79957,7.49271-.17489-.14719-2.82752-2.37957-8.84263-7.44183h.043c-2.17913,1.85028-4.8044,4.07941-8.80634,7.47735l-.03007.0256-.03023-.0256c-2.39785-2.02694-5.07344-4.28867-8.8244-7.4594h.07346c-2.50765,2.12753-5.21832,4.42731-8.80909,7.47382l-.04229.03591-.04246-.03591c-2.58474-2.18728-5.32988-4.5104-8.81724-7.46154h.09427c-2.63688,2.23628-5.4062,4.58485-8.811,7.47234l-.05143.04361-.0516-.04361c-2.68077-2.26851-5.4742-4.63238-8.81884-7.46271h.11058c-2.71139,2.29929-5.52052,4.68139-8.81064,7.47141l-.05881.04988-.059-.04988c-2.74118-2.31994-5.56864-4.71283-8.81879-7.46348h.124c-2.76183,2.34163-5.60041,4.7484-8.81129,7.47074l-.065.05512-.06509-.05512c-2.78286-2.35616-5.63494-4.77091-8.81592-7.46408h.13535c-2.79811,2.37247-5.65906,4.79824-8.81052,7.4702l-.07021.05958-.07032-.05953c-2.815-2.38331-5.68741-4.81519-8.81674-7.46457l.18474-.08557c.00831,61.23579.01922,141.34039.03111,228.8566l-.2359-.10936c2.88606-2.44316,5.84826-4.95081,8.821-7.46733l.09267-.07846.09268.07846.01426.01206c3.01667,2.55374,6.02287,5.09861,8.80667,7.45527h-.18513c3.02317-2.56084,6.035-5.1121,8.81509-7.46711l.09251-.07835.09257.07835c3.02757,2.564,6.04291,5.11772,8.81751,7.4675l-.18452.00005c3.03032-2.56689,6.04732-5.12256,8.815-7.46694l.09206-.078.092.078c3.0328,2.57015,6.05139,5.12823,8.812,7.46771h-.18315c3.03754-2.57273,6.05982-5.13253,8.8157-7.46666l.09119-.07732.09119.07732c3.04062,2.576,6.06477,5.13825,8.81448,7.46788h-.18116c3.04415-2.57852,6.07061-5.14206,8.81476-7.46651l.09-.07621.09.07621c3.04756,2.582,6.07623,5.14789,8.81488,7.46816h-.1783l8.815-7.46629.08844-.07494.08843.07494c3.0534,2.58783,6.0851,5.15709,8.81223,7.46838h-.17483c3.05747-2.5898,6.09148-5.15984,8.8141-7.46606l.08646-.07324.08645.07324c3.0605,2.59355,6.09583,5.16579,8.81322,7.46859l-.21718.10066c.04967-115.06658.08673-200.9982.09879-228.8566l.05457.02532C206.55738,31.205,203.92853,33.41739,203.75442,33.56392Z" fill="#152328"/><path d="M140.73476,57.0057l-.86684-1.2519h-.95664v1.2519h-1.03945V52.512h1.945c1.20024,0,1.95149.62272,1.95149,1.63074a1.46091,1.46091,0,0,1-.92437,1.41852l1.00768,1.44441Zm-.976-3.64617h-.8475V54.926h.8475c.63562,0,.95664-.29548.95664-.78319C140.71542,53.64829,140.3944,53.35953,139.75878,53.35953Z" fill="#152328"/><path d="M146.07025,56.17108v.83462H142.591V52.512h3.39584v.83461H143.6246v.9757H145.711v.80906H143.6246v1.03968Z" fill="#152328"/><path d="M146.60421,54.759a2.47436,2.47436,0,0,1,4.28795-1.528l-.66733.61623a1.44687,1.44687,0,0,0-1.12982-.52615,1.43791,1.43791,0,0,0,0,2.87581,1.43324,1.43324,0,0,0,1.12982-.53291l.66733.61628a2.46987,2.46987,0,0,1-4.28795-1.52127Z" fill="#152328"/><path d="M155.07256,56.17108v.83462h-3.47921V52.512h3.39535v.83461h-2.36233v.9757h2.08646v.80906h-2.08646v1.03968Z" fill="#152328"/><path d="M155.90179,52.512h1.04V57.0057h-1.04Z" fill="#152328"/><path d="M161.90406,54.14277c0,1.00124-.75125,1.624-1.95149,1.624h-.905v1.239h-1.04V52.512h1.945C161.15281,52.512,161.90406,53.13475,161.90406,54.14277Zm-1.05295,0c0-.49448-.321-.78324-.95609-.78324h-.84744v1.56h.84744C160.53009,54.91951,160.85111,54.63048,160.85111,54.14277Z" fill="#152328"/><path d="M163.45221,53.35953h-1.438V52.512h3.91588v.8475h-1.438V57.0057h-1.04Z" fill="#152328"/><path d="M212.57552,46.79438c0,.07918-27.63023.14339-61.70594.14339-34.08755,0-61.71182-.06421-61.71182-.14339S116.782,46.651,150.86958,46.651C184.94529,46.651,212.57552,46.7152,212.57552,46.79438Z" fill="#152328"/><path d="M212.57552,62.68832c0,.07924-27.63023.14345-61.70594.14345-34.08755,0-61.71182-.06421-61.71182-.14345,0-.07913,27.62427-.14333,61.71182-.14333C184.94529,62.545,212.57552,62.60919,212.57552,62.68832Z" fill="#152328"/><path d="M133.87782,70.73262c0,.07918-7.52471.14339-16.80477.14339-9.28326,0-16.80637-.06421-16.80637-.14339s7.52311-.14339,16.80637-.14339C126.35311,70.58923,133.87782,70.65344,133.87782,70.73262Z" fill="#152328"/><path d="M92.3345,79.47183c0,.07919-.3082.14339-.68826.14339-.38022,0-.68836-.0642-.68836-.14339s.30814-.14338.68836-.14338C92.0263,79.32845,92.3345,79.39265,92.3345,79.47183Z" fill="#152328"/><path d="M97.86311,79.47183a6.73308,6.73308,0,0,1-2.76431,0,6.73354,6.73354,0,0,1,2.76431,0Z" fill="#152328"/><path d="M103.39166,79.47183a6.733,6.733,0,0,1-2.7643,0,6.73349,6.73349,0,0,1,2.7643,0Z" fill="#152328"/><path d="M108.92022,79.47183a6.73279,6.73279,0,0,1-2.76425,0,6.73325,6.73325,0,0,1,2.76425,0Z" fill="#152328"/><path d="M114.44883,79.47183a6.73308,6.73308,0,0,1-2.76431,0,6.73354,6.73354,0,0,1,2.76431,0Z" fill="#152328"/><path d="M119.97738,79.47183a6.733,6.733,0,0,1-2.7643,0,6.73349,6.73349,0,0,1,2.7643,0Z" fill="#152328"/><path d="M125.50594,79.47183a6.73279,6.73279,0,0,1-2.76425,0,6.73325,6.73325,0,0,1,2.76425,0Z" fill="#152328"/><path d="M131.03455,79.47183a6.73308,6.73308,0,0,1-2.76431,0,6.73354,6.73354,0,0,1,2.76431,0Z" fill="#152328"/><path d="M136.5631,79.47183a6.733,6.733,0,0,1-2.7643,0,6.73349,6.73349,0,0,1,2.7643,0Z" fill="#152328"/><path d="M142.09166,79.47183a6.73279,6.73279,0,0,1-2.76425,0,6.73325,6.73325,0,0,1,2.76425,0Z" fill="#152328"/><path d="M147.62027,79.47183a6.73308,6.73308,0,0,1-2.76431,0,6.73354,6.73354,0,0,1,2.76431,0Z" fill="#152328"/><path d="M153.14882,79.47183a6.73279,6.73279,0,0,1-2.76425,0,6.73325,6.73325,0,0,1,2.76425,0Z" fill="#152328"/><path d="M158.67738,79.47183a6.73279,6.73279,0,0,1-2.76425,0,6.73325,6.73325,0,0,1,2.76425,0Z" fill="#152328"/><path d="M164.206,79.47183a6.73308,6.73308,0,0,1-2.76431,0,6.73354,6.73354,0,0,1,2.76431,0Z" fill="#152328"/><path d="M169.73454,79.47183a6.73279,6.73279,0,0,1-2.76425,0,6.73325,6.73325,0,0,1,2.76425,0Z" fill="#152328"/><path d="M175.26315,79.47183a6.733,6.733,0,0,1-2.7643,0,6.73349,6.73349,0,0,1,2.7643,0Z" fill="#152328"/><path d="M180.79171,79.47183a6.73308,6.73308,0,0,1-2.76431,0,6.73354,6.73354,0,0,1,2.76431,0Z" fill="#152328"/><path d="M186.32026,79.47183a6.73279,6.73279,0,0,1-2.76425,0,6.73325,6.73325,0,0,1,2.76425,0Z" fill="#152328"/><path d="M191.84887,79.47183a6.733,6.733,0,0,1-2.7643,0,6.73349,6.73349,0,0,1,2.7643,0Z" fill="#152328"/><path d="M197.37743,79.47183a6.73308,6.73308,0,0,1-2.76431,0,6.73354,6.73354,0,0,1,2.76431,0Z" fill="#152328"/><path d="M202.906,79.47183a6.73279,6.73279,0,0,1-2.76425,0,6.73325,6.73325,0,0,1,2.76425,0Z" fill="#152328"/><path d="M208.43459,79.47183a6.733,6.733,0,0,1-2.7643,0,6.73349,6.73349,0,0,1,2.7643,0Z" fill="#152328"/><ellipse cx="211.88721" cy="79.47183" rx="0.68831" ry="0.14339" fill="#152328"/><path d="M100.284,92.07533v5.22873h-.9709v-4.4146H98.20748v-.81413Z" fill="#152328"/><path d="M104.145,97.30406l-1.02332-1.382-1.03087,1.382h-1.03087l1.55382-2.02435-1.48658-1.96438h1.03841l.97839,1.30724.97844-1.30724h1.00851L103.637,95.2649l1.56109,2.03916Z" fill="#152328"/><path d="M102.48227,108.07769v.82168H98.628v-.64988l2.07676-1.97186c.50792-.48562.59746-.79184.59746-1.083,0-.47807-.32857-.75449-.97118-.75449a1.47591,1.47591,0,0,0-1.225.5453l-.67972-.523a2.41479,2.41479,0,0,1,1.987-.86661c1.13543,0,1.8673.57515,1.8673,1.5014a2.09586,2.09586,0,0,1-.86628,1.65084l-1.39677,1.32959Z" fill="#152328"/><path d="M105.82751,108.89937l-1.02327-1.382-1.03087,1.382H102.7425l1.55382-2.02435-1.48658-1.96438h1.03835l.97845,1.3073.97839-1.3073h1.00857l-1.49386,1.94963,1.561,2.0391Z" fill="#152328"/><path d="M100.5028,114.82824V120.057h-.9709v-4.41459H98.42631v-.81414Z" fill="#152328"/><path d="M104.36378,120.057l-1.02333-1.382-1.03081,1.382h-1.03087l1.55382-2.02434-1.48658-1.96438h1.03836l.97844,1.30723.97839-1.30723h1.00856l-1.49385,1.94962,1.561,2.0391Z" fill="#152328"/><path d="M100.5028,127.29738v5.22873h-.9709v-4.4146H98.42631v-.81413Z" fill="#152328"/><path d="M104.36378,132.52611l-1.02333-1.382-1.03081,1.382h-1.03087l1.55382-2.02435-1.48658-1.96432h1.03836l.97844,1.30723.97839-1.30723h1.00856l-1.49385,1.94956,1.561,2.03911Z" fill="#152328"/><path d="M99.79164,145.56445H98.17577v-.76629h4.13734v.76629h-1.61588v4.10942h-.90559Z" fill="#152328"/><path d="M102.57715,147.23577a2.6287,2.6287,0,1,1,2.62609,2.508A2.49673,2.49673,0,0,1,102.57715,147.23577Zm4.33932,0a1.7134,1.7134,0,1,0-1.71323,1.71378A1.66138,1.66138,0,0,0,106.91647,147.23577Z" fill="#152328"/><path d="M109.709,145.56445H108.093v-.76629h4.13739v.76629H110.6145v4.10942H109.709Z" fill="#152328"/><path d="M115.83112,148.54571H113.393l-.4805,1.12816H111.979l2.19427-4.87571h.89156l2.201,4.87571h-.94722Zm-.2995-.71089-.91953-2.13106-.91258,2.13106Z" fill="#152328"/><path d="M117.88476,144.79816h.9056v4.10943h2.54938v.76628h-3.455Z" fill="#152328"/><path d="M98.45483,157.1189a2.63773,2.63773,0,0,1,4.54147-1.69225l-.58506.5501a1.71362,1.71362,0,0,0-1.30267-.57108,1.71373,1.71373,0,1,0,0,3.427,1.69641,1.69641,0,0,0,1.30267-.57807l.58506.55709a2.63766,2.63766,0,0,1-4.54147-1.6928Z" fill="#152328"/><path d="M106.924,158.42884h-2.43816l-.48044,1.12822h-.93351l2.19422-4.87571h.89161l2.20094,4.87571h-.94723Zm-.29955-.71089-.91953-2.13106-.91253,2.13106Z" fill="#152328"/><path d="M108.567,159.04132l.31326-.70334a2.70229,2.70229,0,0,0,1.60921.53666c.75929,0,1.07949-.27208,1.07949-.634,0-1.05179-2.89762-.36243-2.89762-2.17351,0-.78671.627-1.45569,1.96438-1.45569a3.08243,3.08243,0,0,1,1.62287.43182l-.28551.70389a2.70646,2.70646,0,0,0-1.34435-.38342c-.75229,0-1.05884.29256-1.05884.662,0,1.03781,2.89062.36189,2.89062,2.152,0,.78027-.63368,1.44919-1.971,1.44919A3.1398,3.1398,0,0,1,108.567,159.04132Z" fill="#152328"/><path d="M117.6912,154.68135v4.87571h-.90559v-2.08971h-2.52147v2.08971h-.90554v-4.87571h.90554v2.01273h2.52147v-2.01273Z" fill="#152328"/><path d="M98.45428,166.87516a2.63777,2.63777,0,0,1,4.54152-1.69225l-.58506.5501a1.71371,1.71371,0,0,0-1.30272-.57108,1.71373,1.71373,0,1,0,0,3.427,1.6965,1.6965,0,0,0,1.30272-.57807l.58506.55709a2.6377,2.6377,0,0,1-4.54152-1.6928Z" fill="#152328"/><path d="M108.19815,164.43756v4.8757h-.90554v-2.08965h-2.52147v2.08965h-.90553v-4.8757h.90553v2.01278h2.52147v-2.01278Z" fill="#152328"/><path d="M112.66925,168.1851h-2.43816l-.48044,1.12816h-.93357l2.19428-4.8757h.8916l2.20094,4.8757h-.94722Zm-.29956-.71089-.91952-2.13106-.91254,2.13106Z" fill="#152328"/><path d="M119.05543,164.43756v4.8757h-.7453l-2.6887-3.30173v3.30173h-.8986v-4.8757h.74536l2.6887,3.30173v-3.30173Z" fill="#152328"/><path d="M123.69348,166.81977h.85686v1.9434a3.088,3.088,0,0,1-1.90843.62,2.51074,2.51074,0,1,1,.01371-5.01551,2.51835,2.51835,0,0,1,1.95739.79425l-.57108.55709a1.81049,1.81049,0,0,0-1.34435-.55709,1.71428,1.71428,0,1,0-.007,3.427,1.9724,1.9724,0,0,0,1.00289-.2506Z" fill="#152328"/><path d="M129.39753,168.554v.75928h-3.6569v-4.8757H129.3v.75934h-2.65373v1.26742h2.35424v.7453h-2.35424V168.554Z" fill="#152328"/><path d="M211.12649,187.46679c0,.07923-26.90282.14344-60.08141.14344-33.19017,0-60.0872-.06421-60.0872-.14344,0-.07913,26.897-.14334,60.0872-.14334C184.22367,187.32345,211.12649,187.38766,211.12649,187.46679Z" fill="#152328"/><path d="M211.12649,206.55355c0,.07918-26.56544.14339-59.32791.14339-32.77387,0-59.33358-.06421-59.33358-.14339s26.55971-.14334,59.33358-.14334C184.56105,206.41021,211.12649,206.47436,211.12649,206.55355Z" fill="#152328"/><path d="M128.17471,195.58839h-1.63554v-.96412H130.993v.96412H129.3575v4.1471h-1.18279Z" fill="#152328"/><path d="M136.31426,194.62427v5.11122h-1.18279v-2.0956h-2.322v2.0956h-1.18273v-5.11122h1.18273v2.01542h2.322v-2.01542Z" fill="#152328"/><path d="M140.89014,198.64008h-2.373l-.45225,1.09541H136.8528l2.27786-5.11122h1.168l2.28541,5.11122h-1.24111Zm-.37207-.898-.81039-1.95684-.81093,1.95684Z" fill="#152328"/><path d="M147.80287,194.62427v5.11122h-.97119l-2.54784-3.10334v3.10334h-1.16847v-5.11122h.97866l2.54085,3.10328v-3.10328Z" fill="#152328"/><path d="M150.87548,197.72755l-.68666.71573v1.29221h-1.17553v-5.11122h1.17553v2.38755l2.26387-2.38755h1.31424l-2.11763,2.27841,2.2413,2.83281h-1.37981Z" fill="#152328"/><path d="M158.93354,197.9249v1.81059h-1.183v-1.82562l-1.97837-3.2856h1.25564l1.36533,2.27087,1.36533-2.27087h1.161Z" fill="#152328"/><path d="M160.87424,197.18015a2.80071,2.80071,0,1,1,2.7963,2.643A2.64474,2.64474,0,0,1,160.87424,197.18015Zm4.39554,0a1.5994,1.5994,0,1,0-1.59924,1.63526A1.55957,1.55957,0,0,0,165.26978,197.18015Z" fill="#152328"/><path d="M167.31208,197.48664v-2.86237h1.18251v2.81826c0,.97118.42373,1.37288,1.139,1.37288.72322,0,1.13946-.4017,1.13946-1.37288v-2.81826h1.168v2.86237a2.31456,2.31456,0,1,1-4.62891,0Z" fill="#152328"/><path d="M172.85947,199.12944a.703.703,0,0,1,1.40189,0,.70194.70194,0,0,1-1.40189,0Zm.022-4.50517h1.35834l-.22637,3.3372h-.90559Z" fill="#152328"/><rect x="113.75804" y="214.06405" width="1.11517" height="22.74989" fill="#152328"/><rect x="115.71636" y="214.06405" width="2.31779" height="22.74989" fill="#152328"/><rect x="119.12955" y="214.06405" width="0.62206" height="22.74989" fill="#152328"/><rect x="137.33913" y="214.06405" width="0.62212" height="22.74989" fill="#152328"/><rect x="123.54282" y="214.06405" width="0.62212" height="22.74989" fill="#152328"/><rect x="128.5786" y="214.06405" width="0.31106" height="22.74989" fill="#152328"/><rect x="131.46351" y="214.06405" width="0.31106" height="22.74989" fill="#152328"/><rect x="147.09275" y="214.06405" width="0.31106" height="22.74989" fill="#152328"/><rect x="145.91106" y="214.06405" width="0.31106" height="22.74989" fill="#152328"/><rect x="139.39051" y="214.06405" width="0.31106" height="22.74989" fill="#152328"/><rect x="120.74515" y="214.06405" width="1.03676" height="22.74989" fill="#152328"/><rect x="129.86553" y="214.06405" width="1.0367" height="22.74989" fill="#152328"/><rect x="151.86053" y="214.06405" width="1.0367" height="22.74989" fill="#152328"/><rect x="132.7448" y="214.06405" width="0.8094" height="22.74989" fill="#152328"/><rect x="149.34027" y="214.06405" width="0.80939" height="22.74989" fill="#152328"/><rect x="141.5985" y="214.06405" width="0.8094" height="22.74989" fill="#152328"/><rect x="134.59151" y="214.06405" width="0.8094" height="22.74989" fill="#152328"/><rect x="125.5012" y="214.06405" width="2.01675" height="22.74989" fill="#152328"/><rect x="154.08674" y="214.06405" width="2.0168" height="22.74989" fill="#152328"/><rect x="186.08051" y="214.06405" width="1.11523" height="22.74989" transform="translate(373.27625 450.87798) rotate(180)" fill="#152328"/><rect x="182.91963" y="214.06405" width="2.31773" height="22.74989" transform="translate(368.15699 450.87798) rotate(180)" fill="#152328"/><rect x="181.2021" y="214.06405" width="0.62212" height="22.74989" transform="translate(363.02633 450.87798) rotate(180)" fill="#152328"/><rect x="162.99247" y="214.06405" width="0.62212" height="22.74989" transform="translate(326.60707 450.87798) rotate(180)" fill="#152328"/><rect x="176.78883" y="214.06405" width="0.62207" height="22.74989" transform="translate(354.19973 450.87798) rotate(180)" fill="#152328"/><rect x="172.06411" y="214.06405" width="0.31101" height="22.74989" transform="translate(344.43923 450.87798) rotate(180)" fill="#152328"/><rect x="169.17921" y="214.06405" width="0.31101" height="22.74989" transform="translate(338.66943 450.87798) rotate(180)" fill="#152328"/><rect x="161.25215" y="214.06405" width="0.31106" height="22.74989" transform="translate(322.81536 450.87798) rotate(180)" fill="#152328"/><rect x="179.17187" y="214.06405" width="1.0367" height="22.74989" transform="translate(359.38044 450.87798) rotate(180)" fill="#152328"/><rect x="170.05149" y="214.06405" width="1.0367" height="22.74989" transform="translate(341.13969 450.87798) rotate(180)" fill="#152328"/><rect x="167.39958" y="214.06405" width="0.8094" height="22.74989" transform="translate(335.60855 450.87798) rotate(180)" fill="#152328"/><rect x="158.54583" y="214.06405" width="0.8094" height="22.74989" transform="translate(317.90105 450.87798) rotate(180)" fill="#152328"/><rect x="165.55287" y="214.06405" width="0.8094" height="22.74989" transform="translate(331.91514 450.87798) rotate(180)" fill="#152328"/><rect x="173.43577" y="214.06405" width="2.0168" height="22.74989" transform="translate(348.88835 450.87798) rotate(180)" fill="#152328"/><path d="M180.47707,96.48238v.82168h-3.85454v-.64988l2.07677-1.97192c.50764-.48556.59745-.79183.59745-1.083,0-.478-.32857-.75444-.97117-.75444a1.47615,1.47615,0,0,0-1.225.54531l-.67972-.523a2.41526,2.41526,0,0,1,1.987-.86655c1.13521,0,1.86757.57515,1.86757,1.50139a2.096,2.096,0,0,1-.86683,1.65085l-1.3965,1.32959Z" fill="#152328"/><path d="M184.83764,95.69809c0,.9187-.66518,1.68069-2.06921,1.68069a3.27,3.27,0,0,1-1.96439-.60494l.41084-.75445a2.47609,2.47609,0,0,0,1.53845.51541c.69481,0,1.10559-.30649,1.10559-.79937,0-.50038-.321-.81414-1.40453-.81414H181.1923l.26889-2.846h3.06991v.81413h-2.2483l-.11183,1.21016h.5001C184.21761,94.09962,184.83764,94.77179,184.83764,95.69809Z" fill="#152328"/><path d="M186.59173,96.73645a1.68578,1.68578,0,0,1-.17208.64233l-.38071,1.05317h-.605l.29846-1.143a.574.574,0,0,1-.35115-.55252.60539.60539,0,1,1,1.21043,0Z" fill="#152328"/><path d="M191.02059,95.69809c0,.9187-.66518,1.68069-2.06923,1.68069a3.27,3.27,0,0,1-1.96437-.60494l.41083-.75445a2.47623,2.47623,0,0,0,1.53846.51541c.6948,0,1.10565-.30649,1.10565-.79937,0-.50038-.321-.81414-1.4046-.81414h-1.26208l.26888-2.846h3.07v.81413h-2.2483l-.11189,1.21016h.5001C190.40056,94.09962,191.02059,94.77179,191.02059,95.69809Z" fill="#152328"/><path d="M191.57933,94.6898c0-1.71807.941-2.68925,2.18106-2.68925,1.24755,0,2.1886.97118,2.1886,2.68925,0,1.7178-.94105,2.689-2.1886,2.689C192.52033,97.37878,191.57933,96.4076,191.57933,94.6898Zm3.39149,0c0-1.26236-.4931-1.845-1.21043-1.845-.70929,0-1.20239.58264-1.20239,1.845s.4931,1.845,1.20239,1.845C194.47772,96.5348,194.97082,95.95216,194.97082,94.6898Z" fill="#152328"/><path d="M180.47707,108.275v.82168h-3.85454v-.64987l2.07677-1.97187c.50764-.48562.59745-.79183.59745-1.083,0-.47807-.32857-.75449-.97117-.75449a1.47617,1.47617,0,0,0-1.225.5453l-.67972-.523a2.41516,2.41516,0,0,1,1.987-.86661c1.13521,0,1.86757.57516,1.86757,1.5014a2.09592,2.09592,0,0,1-.86683,1.65084l-1.3965,1.32959Z" fill="#152328"/><path d="M185.06132,106.39266a2.47592,2.47592,0,0,1-2.56178,2.77878,2.622,2.622,0,0,1-1.37447-.33606l.3587-.73214a1.77491,1.77491,0,0,0,.99319.25407c.98621,0,1.60624-.61248,1.60624-1.80034v-.00727a1.78682,1.78682,0,0,1-1.39705.54525,1.63415,1.63415,0,0,1-1.80039-1.606,1.7433,1.7433,0,0,1,1.91223-1.69578C184.22461,103.79321,185.06132,104.712,185.06132,106.39266Zm-1.12762-.95609c0-.49283-.38881-.88137-1.083-.88137a.90739.90739,0,0,0-1.02332.88891c0,.54525.41083.88886,1.04534.88886A.95143.95143,0,0,0,183.9337,105.43657Z" fill="#152328"/><path d="M189.74348,106.39266a2.476,2.476,0,0,1-2.56184,2.77878,2.622,2.622,0,0,1-1.37447-.33606l.35869-.73214a1.77507,1.77507,0,0,0,.9932.25407c.98621,0,1.60624-.61248,1.60624-1.80034v-.00727a1.78682,1.78682,0,0,1-1.39705.54525,1.63409,1.63409,0,0,1-1.80033-1.606,1.74327,1.74327,0,0,1,1.91217-1.69578C188.90671,103.79321,189.74348,104.712,189.74348,106.39266Zm-1.12768-.95609c0-.49283-.38876-.88137-1.083-.88137a.9074.9074,0,0,0-1.02333.88891c0,.54525.41085.88886,1.04541.88886A.95141.95141,0,0,0,188.6158,105.43657Z" fill="#152328"/><path d="M191.5051,108.52911a1.68664,1.68664,0,0,1-.17208.64233l-.38071,1.05317h-.605l.29845-1.143a.57414.57414,0,0,1-.35115-.55252.60542.60542,0,1,1,1.21049,0Z" fill="#152328"/><path d="M192.04231,106.48247c0-1.71808.94106-2.68926,2.18106-2.68926,1.24755,0,2.18861.97118,2.18861,2.68926,0,1.71785-.94106,2.689-2.18861,2.689C192.98337,109.17144,192.04231,108.20032,192.04231,106.48247Zm3.39156,0c0-1.26236-.49317-1.845-1.2105-1.845-.70929,0-1.20239.58264-1.20239,1.845s.4931,1.845,1.20239,1.845C194.9407,108.32747,195.43387,107.74483,195.43387,106.48247Z" fill="#152328"/><path d="M197.06752,106.48247c0-1.71808.941-2.68926,2.18106-2.68926,1.24755,0,2.1886.97118,2.1886,2.68926,0,1.71785-.94105,2.689-2.1886,2.689C198.00852,109.17144,197.06752,108.20032,197.06752,106.48247Zm3.39149,0c0-1.26236-.4931-1.845-1.21043-1.845-.70929,0-1.20239.58264-1.20239,1.845s.4931,1.845,1.20239,1.845C199.96591,108.32747,200.459,107.74483,200.459,106.48247Z" fill="#152328"/><path d="M180.76533,118.946c0,.88137-.66463,1.64336-2.06922,1.64336a3.28634,3.28634,0,0,1-1.96438-.605l.41838-.75444a2.4378,2.4378,0,0,0,1.53091.51546c.69475,0,1.10559-.30655,1.10559-.79183,0-.4708-.3436-.77707-1.13516-.77707h-.478v-.66464L179.36074,116.1h-2.37521v-.81413h3.56307v.64988l-1.26958,1.50888A1.49152,1.49152,0,0,1,180.76533,118.946Z" fill="#152328"/><path d="M185.149,119.69288v.82168h-3.85453v-.64982l2.07676-1.97192c.50765-.48556.59746-.79183.59746-1.083,0-.47807-.32857-.75444-.97117-.75444a1.4763,1.4763,0,0,0-1.225.54525l-.67971-.523a2.41508,2.41508,0,0,1,1.987-.86655c1.13516,0,1.86758.57509,1.86758,1.50134a2.096,2.096,0,0,1-.86684,1.65089l-1.39649,1.32954Z" fill="#152328"/><path d="M186.97729,119.947a1.68609,1.68609,0,0,1-.17207.64233l-.38072,1.05317h-.60494l.29845-1.143a.57406.57406,0,0,1-.35115-.55252.60539.60539,0,1,1,1.21043,0Z" fill="#152328"/><path d="M191.62988,117.81055a2.476,2.476,0,0,1-2.56183,2.77879,2.62139,2.62139,0,0,1-1.37447-.33612l.35869-.73214a1.77469,1.77469,0,0,0,.9932.25412c.98621,0,1.60624-.61248,1.60624-1.80039v-.00727a1.7867,1.7867,0,0,1-1.39705.54531,1.63419,1.63419,0,0,1-1.8004-1.606,1.74327,1.74327,0,0,1,1.91224-1.69577C190.79312,115.21111,191.62988,116.12981,191.62988,117.81055Zm-1.12767-.95609c0-.49288-.38881-.88137-1.083-.88137a.90739.90739,0,0,0-1.02332.88886c0,.54531.41084.88891,1.04535.88891A.95143.95143,0,0,0,190.50221,116.85446Z" fill="#152328"/><path d="M196.312,117.81055a2.476,2.476,0,0,1-2.56183,2.77879,2.62137,2.62137,0,0,1-1.37447-.33612l.35869-.73214a1.77482,1.77482,0,0,0,.9932.25412c.98621,0,1.60624-.61248,1.60624-1.80039v-.00727a1.78668,1.78668,0,0,1-1.39705.54531,1.63413,1.63413,0,0,1-1.80034-1.606,1.74324,1.74324,0,0,1,1.91218-1.69577C195.47521,115.21111,196.312,116.12981,196.312,117.81055Zm-1.12767-.95609c0-.49288-.38876-.88137-1.083-.88137a.90739.90739,0,0,0-1.02333.88886c0,.54531.41084.88891,1.04541.88891A.95141.95141,0,0,0,195.18431,116.85446Z" fill="#152328"/><path d="M181.266,128.64927a1.7433,1.7433,0,0,1-1.91223,1.69578c-1.42662,0-2.26333-.91876-2.26333-2.59944a2.47632,2.47632,0,0,1,2.56233-2.77879,2.62331,2.62331,0,0,1,1.37447.33606l-.35869.73214a1.77811,1.77811,0,0,0-.99376-.25407c-.98566,0-1.60568.61276-1.60568,1.80034v.00755a1.78388,1.78388,0,0,1,1.39649-.54525A1.63394,1.63394,0,0,1,181.266,128.64927Zm-.94106.04488c0-.54525-.41084-.88885-1.0459-.88885a.95091.95091,0,0,0-1.06043.89639c0,.49283.38826.88137,1.083.88137A.90767.90767,0,0,0,180.32492,128.69415Z" fill="#152328"/><path d="M183.0421,129.70272a1.68625,1.68625,0,0,1-.17209.64233l-.38071,1.05317h-.60494l.29845-1.143a.57412.57412,0,0,1-.35115-.55252.6054.6054,0,1,1,1.21044,0Z" fill="#152328"/><path d="M187.47095,128.66431c0,.91875-.66518,1.68074-2.06922,1.68074a3.27,3.27,0,0,1-1.96438-.605l.41084-.75444a2.476,2.476,0,0,0,1.5385.51546c.69476,0,1.10559-.30655,1.10559-.79938,0-.50037-.321-.81413-1.40459-.81413h-1.26208l.26888-2.846h3.07v.81413h-2.24829l-.1119,1.21022h.5001C186.85093,127.06589,187.47095,127.73806,187.47095,128.66431Z" fill="#152328"/><path d="M188.02969,127.65607c0-1.71807.941-2.68925,2.18106-2.68925,1.24755,0,2.1886.97118,2.1886,2.68925,0,1.7178-.941,2.689-2.1886,2.689C188.97069,130.345,188.02969,129.37387,188.02969,127.65607Zm3.39149,0c0-1.26236-.4931-1.845-1.21043-1.845-.70929,0-1.20239.58264-1.20239,1.845s.4931,1.845,1.20239,1.845C190.92808,129.50107,191.42118,128.91843,191.42118,127.65607Z" fill="#152328"/><path d="M180.36468,148.1053c0,.88136-.66463,1.64335-2.06922,1.64335a3.28656,3.28656,0,0,1-1.96438-.605l.41838-.75444a2.43783,2.43783,0,0,0,1.531.51519c.69476,0,1.10559-.306,1.10559-.79156,0-.47053-.3436-.77707-1.13516-.77707h-.47807v-.66463l1.18737-1.41159h-2.37522v-.81413H180.148v.6496l-1.26963,1.50888A1.49132,1.49132,0,0,1,180.36468,148.1053Z" fill="#152328"/><path d="M185.1737,148.05315a1.74307,1.74307,0,0,1-1.91217,1.6955c-1.42662,0-2.26339-.919-2.26339-2.59944a2.47611,2.47611,0,0,1,2.56239-2.77851,2.62032,2.62032,0,0,1,1.37441.33606l-.35863.73186a1.77987,1.77987,0,0,0-.99376-.25379c-.98566,0-1.60569.61248-1.60569,1.79979v.00754a1.78562,1.78562,0,0,1,1.3965-.54525A1.63415,1.63415,0,0,1,185.1737,148.05315Zm-.941.0446c0-.54525-.41084-.88885-1.046-.88885a.951.951,0,0,0-1.06038.8964c0,.4931.38821.88136,1.083.88136A.90767.90767,0,0,0,184.2327,148.09775Z" fill="#152328"/><path d="M189.39287,148.1053c0,.88136-.66468,1.64335-2.06927,1.64335a3.2863,3.2863,0,0,1-1.96433-.605l.41833-.75444a2.43792,2.43792,0,0,0,1.531.51519c.69476,0,1.10559-.306,1.10559-.79156,0-.47053-.3436-.77707-1.13516-.77707h-.47807v-.66463l1.18736-1.41159h-2.37521v-.81413h3.56307v.6496l-1.26962,1.50888A1.49137,1.49137,0,0,1,189.39287,148.1053Z" fill="#152328"/><path d="M191.22119,149.106a1.68715,1.68715,0,0,1-.17208.64261l-.38072,1.05289h-.605l.29845-1.1427a.57417.57417,0,0,1-.35115-.5528.60542.60542,0,1,1,1.21049,0Z" fill="#152328"/><path d="M195.87427,146.97014a2.476,2.476,0,0,1-2.56183,2.77851,2.61941,2.61941,0,0,1-1.37447-.33611l.35869-.73187a1.77679,1.77679,0,0,0,.9932.25379c.98621,0,1.60624-.61248,1.60624-1.80034v-.00754a1.78577,1.78577,0,0,1-1.397.5453,1.63377,1.63377,0,0,1-1.80034-1.60568,1.743,1.743,0,0,1,1.91218-1.6955C195.03751,144.3707,195.87427,145.28912,195.87427,146.97014Zm-1.12767-.95615c0-.4931-.38876-.88131-1.083-.88131a.907.907,0,0,0-1.02332.88831c0,.5453.41084.88891,1.04535.88891A.95122.95122,0,0,0,194.7466,146.014Z" fill="#152328"/><path d="M200.55582,146.97014a2.476,2.476,0,0,1-2.56178,2.77851,2.61943,2.61943,0,0,1-1.37447-.33611l.35864-.73187a1.777,1.777,0,0,0,.99325.25379c.98621,0,1.60619-.61248,1.60619-1.80034v-.00754a1.78568,1.78568,0,0,1-1.39705.5453,1.6338,1.6338,0,0,1-1.80034-1.60568,1.74305,1.74305,0,0,1,1.91223-1.6955C199.71911,144.3707,200.55582,145.28912,200.55582,146.97014Zm-1.12762-.95615c0-.4931-.38881-.88131-1.083-.88131a.907.907,0,0,0-1.02332.88831c0,.5453.41083.88891,1.04534.88891A.95121.95121,0,0,0,199.4282,146.014Z" fill="#152328"/><path d="M181.42512,158.36915h-.92652v1.18791h-.94106v-1.18791h-2.86832V157.697l2.57741-3.36842h1.03786l-2.42736,3.219h1.71053v-1.05294h.91094v1.05294h.92652Z" fill="#152328"/><path d="M181.83436,156.94253c0-1.71808.941-2.6887,2.18106-2.6887,1.2476,0,2.1886.97062,2.1886,2.6887s-.941,2.68925-2.1886,2.68925C182.77541,159.63178,181.83436,158.6606,181.83436,156.94253Zm3.39154,0c0-1.26209-.4931-1.845-1.21048-1.845-.70929,0-1.20239.58291-1.20239,1.845,0,1.26263.4931,1.845,1.20239,1.845C184.7328,158.78753,185.2259,158.20516,185.2259,156.94253Z" fill="#152328"/><path d="M186.85957,156.94253c0-1.71808.941-2.6887,2.181-2.6887,1.24755,0,2.18861.97062,2.18861,2.6887s-.94106,2.68925-2.18861,2.68925C187.80057,159.63178,186.85957,158.6606,186.85957,156.94253Zm3.39149,0c0-1.26209-.49311-1.845-1.21044-1.845-.70928,0-1.20238.58291-1.20238,1.845,0,1.26263.4931,1.845,1.20238,1.845C189.758,158.78753,190.25106,158.20516,190.25106,156.94253Z" fill="#152328"/><path d="M192.99086,158.98917a1.68574,1.68574,0,0,1-.17208.64261l-.38072,1.05289h-.60494l.29845-1.1427a.57418.57418,0,0,1-.35114-.5528.60539.60539,0,1,1,1.21043,0Z" fill="#152328"/><path d="M193.52808,156.94253c0-1.71808.94105-2.6887,2.18111-2.6887,1.24754,0,2.1886.97062,2.1886,2.6887s-.94106,2.68925-2.1886,2.68925C194.46913,159.63178,193.52808,158.6606,193.52808,156.94253Zm3.39154,0c0-1.26209-.49311-1.845-1.21043-1.845-.70929,0-1.2024.58291-1.2024,1.845,0,1.26263.49311,1.845,1.2024,1.845C196.42651,158.78753,196.91962,158.20516,196.91962,156.94253Z" fill="#152328"/><path d="M198.55328,156.94253c0-1.71808.94106-2.6887,2.18106-2.6887,1.2476,0,2.1886.97062,2.1886,2.6887s-.941,2.68925-2.1886,2.68925C199.49434,159.63178,198.55328,158.6606,198.55328,156.94253Zm3.39155,0c0-1.26209-.49311-1.845-1.21049-1.845-.70929,0-1.2024.58291-1.2024,1.845,0,1.26263.49311,1.845,1.2024,1.845C201.45172,158.78753,201.94483,158.20516,201.94483,156.94253Z" fill="#152328"/><path d="M180.36468,167.74524c0,.88137-.66463,1.64335-2.06922,1.64335a3.28663,3.28663,0,0,1-1.96438-.605l.41838-.75445a2.43813,2.43813,0,0,0,1.531.51519c.69476,0,1.10559-.306,1.10559-.79156,0-.47053-.3436-.77707-1.13516-.77707h-.47807v-.66463l1.18737-1.41159h-2.37522v-.81413H180.148v.6496l-1.26963,1.50888A1.49132,1.49132,0,0,1,180.36468,167.74524Z" fill="#152328"/><path d="M185.1737,167.69309a1.74307,1.74307,0,0,1-1.91217,1.6955c-1.42662,0-2.26339-.919-2.26339-2.59944a2.47611,2.47611,0,0,1,2.56239-2.77851,2.62032,2.62032,0,0,1,1.37441.33606l-.35863.73186a1.77987,1.77987,0,0,0-.99376-.25379c-.98566,0-1.60569.61249-1.60569,1.79979v.00755a1.7856,1.7856,0,0,1,1.3965-.54526A1.63415,1.63415,0,0,1,185.1737,167.69309Zm-.941.04461c0-.54526-.41084-.88886-1.046-.88886a.951.951,0,0,0-1.06038.8964c0,.4931.38821.88137,1.083.88137A.9077.9077,0,0,0,184.2327,167.7377Z" fill="#152328"/><path d="M186.95042,168.746a1.687,1.687,0,0,1-.17208.6426l-.38071,1.05289h-.60494l.29845-1.1427a.57423.57423,0,0,1-.35115-.55279.60539.60539,0,1,1,1.21043,0Z" fill="#152328"/><path d="M187.48708,166.69934c0-1.71808.94106-2.6887,2.18112-2.6887,1.24754,0,2.1886.97062,2.1886,2.6887s-.94106,2.68925-2.1886,2.68925C188.42814,169.38859,187.48708,168.41741,187.48708,166.69934Zm3.39155,0c0-1.26208-.4931-1.845-1.21043-1.845-.70929,0-1.2024.58292-1.2024,1.845,0,1.26258.49311,1.845,1.2024,1.845C190.38553,168.54434,190.87863,167.96192,190.87863,166.69934Z" fill="#152328"/><path d="M194.28306,164.08536v5.22845h-.97117v-4.41432H192.2063v-.81413Z" fill="#152328"/><path d="M136.38343,95.96015c0,.07923-6.11819.14344-13.66355.14344-7.54805,0-13.66486-.06421-13.66486-.14344,0-.07913,6.11681-.14334,13.66486-.14334C130.26524,95.81681,136.38343,95.881,136.38343,95.96015Z" fill="#152328"/><path d="M153.56594,107.41515c0,.07924-9.78176.14345-21.84528.14345-12.06783,0-21.84744-.06421-21.84744-.14345,0-.07913,9.77961-.14333,21.84744-.14333C143.78418,107.27182,153.56594,107.336,153.56594,107.41515Z" fill="#152328"/><path d="M137.85619,118.87022c0,.07918-6.26472.14338-13.9908.14338-7.72883,0-13.99217-.0642-13.99217-.14338s6.26334-.14339,13.99217-.14339C131.59147,118.72683,137.85619,118.791,137.85619,118.87022Z" fill="#152328"/><path d="M134.91061,130.97978c0,.07918-4.76266.14339-10.63631.14339-5.87568,0-10.63729-.06421-10.63729-.14339s4.76161-.14339,10.63729-.14339C130.148,130.83639,134.91061,130.9006,134.91061,130.97978Z" fill="#152328"/><path d="M80.93621,58.6757a9.49343,9.49343,0,0,1,2.56155,8.402c-.28639,1.45305-.88769,3.07911-.06558,4.311.8138,1.21929,2.67207,1.40569,3.443,2.65263.90752,1.46792-.22,3.361-.03535,5.0768a3.41707,3.41707,0,0,0,3.31209,2.946,13.33009,13.33009,0,0,1-6.90055,2.07589q-.77964-1.28712-1.55932-2.57444a2.45033,2.45033,0,0,1-.51464,2.96584A5.58312,5.58312,0,0,1,78.2409,85.8382a16.91852,16.91852,0,0,1-14.44436-4.12694" fill="#152328"/><path d="M51.84077,68.38758a34.05369,34.05369,0,0,0,1.622-3.17795c.82383-2.42335-.05776-5.36408,1.41153-7.46,1.04585-1.4917,2.96661-2.05634,4.75837-2.38535,1.79186-.329,3.70106-.562,5.13985-1.67947,1.05531-.81953,1.74429-2.03817,2.79685-2.86128a8.03073,8.03073,0,0,1,5.43714-1.28422,11.40041,11.40041,0,0,1,5.57713,1.592,6.25713,6.25713,0,0,1,2.98616,4.79086,18.45989,18.45989,0,0,0,.00016,2.853A19.55273,19.55273,0,0,0,82.8344,61.645a5.01442,5.01442,0,0,1-1.948,5.823L65.55613,83.0903c-2.91986.72691-9.54277-1.34743-11.46046-3.66615C52.1781,77.10532,50.57858,71.11912,51.84077,68.38758Z" fill="#152328"/><path d="M80.79194,65.24283c-.08926-3.967-2.51431-8.92809-6.47391-8.67071L61.88061,59.1856a2.322,2.322,0,0,0-2.171,2.26894l.11558,29.74107-.08584.015s2.44658,8.49192,10.69148,6.28168c1.635-.43826,2.44674-2.17143,2.84409-3.97281l.08282.0142c.01233-.21547.02362-.4159.03513-.62157a19.44707,19.44707,0,0,0,.22246-4.0738h0c.12522-2.39559.16464-3.37844.1653-3.35614,0,0,5.0892-.63462,6.40365-7.188C80.838,75.0351,80.89089,69.65027,80.79194,65.24283Z" fill="#ffb08a"/><path d="M70.68673,70.0953a.84643.84643,0,0,1-.8502.82041.80974.80974,0,0,1-.84111-.79794.84705.84705,0,0,1,.84926-.821A.8103.8103,0,0,1,70.68673,70.0953Z" fill="#152328"/><path d="M79.31075,70.0953a.84647.84647,0,0,1-.8502.82041.80976.80976,0,0,1-.84111-.798.847.847,0,0,1,.84921-.8209A.81027.81027,0,0,1,79.31075,70.0953Z" fill="#152328"/><path d="M79.85226,68.12c-.10909.143-.83131-.44212-1.82435-.41491-.99249.01073-1.69864.62322-1.81174.48429-.0554-.06134.0517-.31706.35863-.59376a2.26979,2.26979,0,0,1,1.44375-.56084,2.24643,2.24643,0,0,1,1.45866.50517C79.79306,67.8051,79.90617,68.056,79.85226,68.12Z" fill="#152328"/><path d="M70.66768,68.099c-.13177.12759-.834-.51964-1.88922-.59833-1.05361-.09515-1.8701.42692-1.97462.27956-.0517-.0658.08844-.30368.446-.54079a2.56369,2.56369,0,0,1,1.59286-.39382,2.49755,2.49755,0,0,1,1.4911.64773C70.63855,67.78544,70.73155,68.04216,70.66768,68.099Z" fill="#152328"/><path d="M73.58776,74.68522a6.03544,6.03544,0,0,1,1.48928-.20688c.23342-.01459.45522-.05187.50082-.20886a1.18321,1.18321,0,0,0-.12715-.69524q-.29379-.85688-.61578-1.79776a30.45548,30.45548,0,0,1-1.35636-4.692,30.50651,30.50651,0,0,1,1.73085,4.5718q.30668.94607.58639,1.80717a1.34616,1.34616,0,0,1,.08369.91716.58444.58444,0,0,1-.396.32439,1.58023,1.58023,0,0,1-.397.03882A5.92192,5.92192,0,0,1,73.58776,74.68522Z" fill="#152328"/><path d="M73.78065,85.48215a16.7932,16.7932,0,0,1-8.73816-2.71392S67.00213,87.386,73.62857,87.036Z" fill="#fe8557"/><path d="M73.1141,76.86342a1.64156,1.64156,0,0,0-1.44578-.66871,1.49823,1.49823,0,0,0-1.05642.51287.94935.94935,0,0,0-.11608,1.082,1.10143,1.10143,0,0,0,1.18109.35,3.45089,3.45089,0,0,0,1.19149-.64718,1.00485,1.00485,0,0,0,.27081-.25875.30433.30433,0,0,0,.01239-.33881" fill="#ff5749"/><path d="M70.88353,75.20641c.14835-.00253.11024.98549.92762,1.721.81562.73787,1.87347.66942,1.87551.80791.01129.06261-.2424.18249-.68726.17654a2.46254,2.46254,0,0,1-1.568-.61849,2.144,2.144,0,0,1-.71436-1.44049C70.69615,75.4384,70.81624,75.198,70.88353,75.20641Z" fill="#152328"/><path d="M70.94311,65.01481c-.09966.24388-1.00388.08981-2.07682.17532-1.07508.06388-1.94885.34157-2.08156.11382-.05892-.10864.10061-.3354.45858-.56094a3.6237,3.6237,0,0,1,3.1681-.22043C70.797,64.69648,70.98645,64.899,70.94311,65.01481Z" fill="#152328"/><path d="M79.28058,65.34531c-.19135.19927-.89932-.04422-1.76064-.08926-.85973-.07131-1.59716.0745-1.7564-.14846-.06944-.10809.054-.3104.38071-.49332a2.70235,2.70235,0,0,1,1.44584-.28072,2.66755,2.66755,0,0,1,1.388.4724C79.27408,65.03072,79.36532,65.24768,79.28058,65.34531Z" fill="#152328"/><path d="M59.124,59.81411a5.39667,5.39667,0,0,1,2.9344-1.48548,60.65627,60.65627,0,0,1,14.27245-1.89814,2.46462,2.46462,0,0,1-1.19948,2.90439A10.99452,10.99452,0,0,1,71.8687,60.356a4.27114,4.27114,0,0,0-2.839,1.756c-.59811,1.06126-.35974,2.42929-.90361,3.519-.936,1.87517-3.74308,2.185-4.66834,4.06521-.69965,1.42226-.02626,3.10311.00524,4.68777a5.66336,5.66336,0,0,1-6.27766,5.75316q.50565-8.48537,1.01126-16.97084A5.64977,5.64977,0,0,1,59.124,59.81411Z" fill="#152328"/><path d="M46.13364,72.67624c.981-.69084,2.17456-1.24771,2.66227-2.34394.71022-1.59693-.39162-3.70123.6431-5.10973.94387-1.28461,3.23907-.94392,4.13134-2.26482.6969-1.03152.15947-2.08018.48881-3.01947a2.649,2.649,0,0,1,2.766-1.39314l6.36433,12.02427c.27351,3.8145.75659,5.88482-.30126,7.973a17.84965,17.84965,0,0,0-1.61125,3.48807,3.64747,3.64747,0,0,0,.7785,3.58185c-4.63017-.18039-8.64709-3.08792-12.34716-5.87717q-1.958-1.47617-3.9161-2.95207a3.0925,3.0925,0,0,1-1.04193-1.09871C44.25417,74.59194,45.15283,73.367,46.13364,72.67624Z" fill="#152328"/><path d="M49.72579,78.5973a2.20061,2.20061,0,0,0,.47917.15175,4.20436,4.20436,0,0,0,1.44088.067,4.45811,4.45811,0,0,0,2.11966-.83831,4.3831,4.3831,0,0,0,1.62788-2.52752,4.52058,4.52058,0,0,0,.05683-1.77733,7.224,7.224,0,0,0-.65125-1.80535,6.80785,6.80785,0,0,1-.6708-1.8727,2.29636,2.29636,0,0,1,.47477-1.91636,4.17353,4.17353,0,0,1,2.02776-.76094,2.11385,2.11385,0,0,0,1.06374-.60929,2.06891,2.06891,0,0,0,.45714-1.16589,13.13138,13.13138,0,0,0-.24046-2.4512,2.62723,2.62723,0,0,1,.13061-1.17283,1.6465,1.6465,0,0,1,.77168-.85246,4.61989,4.61989,0,0,1,2.39394-.347,5.00821,5.00821,0,0,0,2.44652-.41739A4.48557,4.48557,0,0,0,65.4786,58.7377a7.38984,7.38984,0,0,0,.856-2.12858,10.35042,10.35042,0,0,1,.69254-2.00948,4.62,4.62,0,0,1,1.27051-1.49941,5.187,5.187,0,0,1,6.11522-.13722,6.3241,6.3241,0,0,1,1.60871,1.554,8.36815,8.36815,0,0,1,.90813,1.6938A.45411.45411,0,0,0,76.9,56.08661c-.02671-.07984-.05606-.203-.11922-.35528a6.06355,6.06355,0,0,0-.67366-1.2748,6.288,6.288,0,0,0-1.60971-1.618,5.41934,5.41934,0,0,0-2.8491-.99221,5.50743,5.50743,0,0,0-3.48549,1.076,4.83556,4.83556,0,0,0-1.34562,1.56808,10.49077,10.49077,0,0,0-.7214,2.05177,7.18914,7.18914,0,0,1-.83126,2.05331,4.23382,4.23382,0,0,1-1.72253,1.4672,4.7482,4.7482,0,0,1-2.3288.38848,4.84782,4.84782,0,0,0-2.52951.3789,1.91822,1.91822,0,0,0-.892.98952,2.88462,2.88462,0,0,0-.14763,1.2922,13.304,13.304,0,0,1,.245,2.40484,1.811,1.811,0,0,1-.39157,1.0209,1.86106,1.86106,0,0,1-.93726.53281c-.35979.10435-.74.16-1.11285.26916a2.195,2.195,0,0,0-1.023.56689,2.52727,2.52727,0,0,0-.5305,2.12219,6.966,6.966,0,0,0,.70324,1.93415,7.071,7.071,0,0,1,.6486,1.74693,4.34217,4.34217,0,0,1-.03794,1.69825,4.24334,4.24334,0,0,1-1.53311,2.44978,4.40812,4.40812,0,0,1-2.04279.85449A4.99151,4.99151,0,0,1,49.72579,78.5973Z" fill="#2c4852"/><path d="M44.53632,69.97063a.97141.97141,0,0,0-.19531.35726,1.65659,1.65659,0,0,0,.06305,1.16082,1.75523,1.75523,0,0,0,.51441.68628,1.83924,1.83924,0,0,0,.94937.37647,2.30665,2.30665,0,0,0,2.1597-1.03956,3.09134,3.09134,0,0,0,.49161-1.36005,4.30765,4.30765,0,0,0-.14427-1.55426,9.50918,9.50918,0,0,1-.672-3.24276,2.1338,2.1338,0,0,1,.71826-1.51472,2.33248,2.33248,0,0,1,1.72892-.32461,5.66229,5.66229,0,0,0,2.0108.028,1.73956,1.73956,0,0,0,.89761-.59189,2.47654,2.47654,0,0,0,.45467-.97266,8.16567,8.16567,0,0,0,.07434-2.05959,4.51075,4.51075,0,0,1,.32873-1.87787,4.805,4.805,0,0,1,2.46509-2.55071,6.7992,6.7992,0,0,1,3.26715-.352,9.4584,9.4584,0,0,0,2.95808-.11614A6.2076,6.2076,0,0,0,66.11085,52.658a4.37947,4.37947,0,0,0,.71744-1.39171,8.47918,8.47918,0,0,1-.8013,1.329,6.15569,6.15569,0,0,1-1.30146,1.25471,6.01878,6.01878,0,0,1-2.163.98753,9.39478,9.39478,0,0,1-2.89982.07863,6.97059,6.97059,0,0,0-3.38087.34746,5.04216,5.04216,0,0,0-2.60968,2.67791,4.77229,4.77229,0,0,0-.35247,1.982,8.0444,8.0444,0,0,1-.06817,1.9924,1.72265,1.72265,0,0,1-1.16357,1.37,5.52843,5.52843,0,0,1-1.91284-.03282,2.57731,2.57731,0,0,0-1.913.38507,2.377,2.377,0,0,0-.80626,1.69351,4.53764,4.53764,0,0,0,.21888,1.75866c.16107.54613.35225,1.058.48391,1.56285a4.11994,4.11994,0,0,1,.15407,1.47607,2.90727,2.90727,0,0,1-.44365,1.27717,2.14657,2.14657,0,0,1-1.98641.9954,1.71467,1.71467,0,0,1-.88566-.32818,1.68843,1.68843,0,0,1-.60411-1.73008C44.46287,70.09238,44.54954,69.97807,44.53632,69.97063Z" fill="#152328"/><path d="M92.56792,78.40286a1.82885,1.82885,0,0,1-.15633,1.198,1.59155,1.59155,0,0,1-1.06749.85482,1.66951,1.66951,0,0,1-1.6298-.6583,1.53374,1.53374,0,0,1-.28144-1.00735,3.19043,3.19043,0,0,1,.31233-1.14056,6.79563,6.79563,0,0,0,.97464-2.55638,3.72855,3.72855,0,0,0-1.08356-2.816,4.36916,4.36916,0,0,0-1.34121-.92129,6.41774,6.41774,0,0,0-1.60652-.42719,8.63827,8.63827,0,0,1-1.56675-.35258,2.12373,2.12373,0,0,1-1.1443-.91281,2.61042,2.61042,0,0,1-.28656-1.41,5.20982,5.20982,0,0,1,.28529-1.40112,10.79323,10.79323,0,0,0,.72741-2.63584,4.09644,4.09644,0,0,0-.55726-2.32566A5.28708,5.28708,0,0,0,82.8,60.45159a9.96426,9.96426,0,0,1-1.09832-.9666,3.08953,3.08953,0,0,1-.63809-1.05444c-.00452.001-.0011.02891.01007.08276a1.32881,1.32881,0,0,0,.06526.23568,2.47242,2.47242,0,0,0,.48418.80521,9.15468,9.15468,0,0,0,1.08059,1.013,5.23743,5.23743,0,0,1,1.27794,1.41864A3.92632,3.92632,0,0,1,84.481,64.2004a10.83634,10.83634,0,0,1-.74018,2.574,5.42192,5.42192,0,0,0-.3066,1.46615,2.858,2.858,0,0,0,.31392,1.55283,2.38617,2.38617,0,0,0,1.27921,1.03329,8.77323,8.77323,0,0,0,1.61632.36739,6.20275,6.20275,0,0,1,1.5433.40677,4.12256,4.12256,0,0,1,1.26153.86148,3.48612,3.48612,0,0,1,1.02365,2.61723,6.71579,6.71579,0,0,1-.93059,2.47868,3.375,3.375,0,0,0-.31618,1.22343,1.72787,1.72787,0,0,0,.33606,1.12916,1.82665,1.82665,0,0,0,1.81482.69189,1.76133,1.76133,0,0,0,1.28356-1.88465A.96661.96661,0,0,0,92.56792,78.40286Z" fill="#152328"/><path d="M90.74313,234.21229l-.18464,12.767s13.83095,4.92973,13.74692,7.88417l-25.54635.071.87845-7.67641-1.35416-12.77519Z" fill="#3464d9"/><path d="M78.73141,255.17588l.2652-2.31707,24.531.59784a2.10751,2.10751,0,0,1,.77779,1.40679Z" fill="#152328"/><path d="M91.20975,247.35993c-.0038.126-.6333.1848-1.25157.59151-.62928.39052-.947.93687-1.06308.88742-.11619-.02423.06949-.77751.827-1.25663C90.475,247.09628,91.23678,247.24441,91.20975,247.35993Z" fill="#152328"/><path d="M93.91788,248.471c.029.12191-.51567.3376-.94177.8714-.442.52124-.54822,1.09744-.67371,1.09237-.11812.02021-.20743-.7171.335-1.37078C93.17413,248.40572,93.91475,248.35093,93.91788,248.471Z" fill="#152328"/><path d="M95.46328,251.70388c-.11437.0272-.29141-.60147.02995-1.292.31651-.69293.90945-.96671.96319-.86187.07148.10336-.3099.47433-.56524,1.0454C95.6228,251.16,95.58828,251.69111,95.46328,251.70388Z" fill="#152328"/><path d="M90.974,244.32146c-.05247.11476-.63065-.05727-1.34225-.00683-.71271.03585-1.26577.27637-1.33175.16856-.07323-.09086.46618-.55853,1.30537-.6061C90.44358,243.82307,91.03558,244.22229,90.974,244.32146Z" fill="#152328"/><path d="M89.97272,244.30164a1.0044,1.0044,0,0,0,.12714-.507,2.465,2.465,0,0,0-.59806-1.79186.93907.93907,0,0,0-.46788-.32422.47688.47688,0,0,0-.58848.31591.88306.88306,0,0,0,.17995.63506q.30372.50814.62994,1.05416l.166.276.08563.14157a.33831.33831,0,0,0,.22279.17312.34872.34872,0,0,0,.26211-.08381l.13783-.09873.2724-.20765a8.65639,8.65639,0,0,0,.9817-.91231c.14685-.15919.285-.32136.41414-.48474a1.52232,1.52232,0,0,0,.32989-.569.48313.48313,0,0,0-.0571-.38655.4431.4431,0,0,0-.3365-.19433.93956.93956,0,0,0-.58611.18574,2.63876,2.63876,0,0,0-.718.70433,2.67573,2.67573,0,0,0-.48385,1.345,1.07538,1.07538,0,0,0,.04785.52025,4.42372,4.42372,0,0,0,.06943-.50616,2.81784,2.81784,0,0,1,.53986-1.23246,2.50787,2.50787,0,0,1,.68016-.61881.70624.70624,0,0,1,.42394-.13233.17659.17659,0,0,1,.1484.24983,1.30362,1.30362,0,0,1-.28391.453q-.19089.23424-.406.46381a8.92285,8.92285,0,0,1-.95262.87713l-.26283.20076-.13293.09582a.35811.35811,0,0,1-.04829.0316c-.01162-.01674.00953.0598.00314.04532-.009.00633.03233-.05209.01762-.04113a.2191.2191,0,0,1-.0283-.038l-.084-.137-.16844-.27467q-.33361-.54051-.645-1.045a.68015.68015,0,0,1-.15963-.42687c.01283-.09972.15043-.15941.27394-.13325.25605.06492.47.36409.62009.5855a2.54049,2.54049,0,0,1,.38292,1.28185C89.9916,244.11568,89.94673,244.296,89.97272,244.30164Z" fill="#152328"/><path d="M44.658,234.77687l-1.75943,12.6465S56.015,254.023,55.56684,256.94445l-25.35968-3.08352,1.8195-7.50929.23347-12.84462Z" fill="#3464d9"/><path d="M30.14994,254.0971l.54922-2.26663,24.26956,3.62194a2.10768,2.10768,0,0,1,.59812,1.492Z" fill="#152328"/><path d="M43.49775,247.88151c-.01928.12461-.65125.10523-1.31506.43248-.67256.30984-1.05537.81286-1.16445.74937-.11228-.03838.165-.763.9758-1.1449C42.80123,247.5292,43.53888,247.77028,43.49775,247.88151Z" fill="#152328"/><path d="M46.048,249.31848c.01382.12461-.55335.27136-1.0421.74849-.50291.46271-.67955,1.02134-.80345,1.00086-.11971.00539-.11734-.73726.50169-1.319C45.318,249.16187,46.05969,249.19888,46.048,249.31848Z" fill="#152328"/><path d="M47.18246,252.7174c-.1169.01289-.215-.63286.1892-1.27844.39966-.64849,1.02184-.84706,1.0622-.73638.0582.1114-.36607.43248-.68991.96771C47.40789,252.19743,47.308,252.72016,47.18246,252.7174Z" fill="#152328"/><path d="M43.639,244.8372c-.06619.10743-.61877-.13464-1.33119-.17247-.71171-.05247-1.29017.118-1.34232.00287-.0615-.09923.53154-.49669,1.37012-.44035C43.17408,244.27713,43.71228,244.7464,43.639,244.8372Z" fill="#152328"/><path d="M42.64777,244.69392a1.004,1.004,0,0,0,.18876-.48743,2.46438,2.46438,0,0,0-.37224-1.852.93869.93869,0,0,0-.42427-.3795.47687.47687,0,0,0-.62295.2408.88253.88253,0,0,0,.10016.6524l.495,1.12387.13067.29449.06745.151a.33831.33831,0,0,0,.19972.19928.3488.3488,0,0,0,.27042-.05077l.149-.081.296-.17241a8.669,8.669,0,0,0,1.08682-.78406c.16536-.13992.3224-.28375.4708-.42995a1.52264,1.52264,0,0,0,.39762-.52394.48312.48312,0,0,0-.00892-.39063.4429.4429,0,0,0-.3099-.23435.93971.93971,0,0,0-.60461.11189,2.63956,2.63956,0,0,0-.79943.61034,2.67571,2.67571,0,0,0-.64624,1.27491,1.076,1.076,0,0,0-.01674.52212,4.39732,4.39732,0,0,0,.13138-.49365,2.81756,2.81756,0,0,1,.68793-1.15636,2.50745,2.50745,0,0,1,.7513-.53011.70668.70668,0,0,1,.437-.079.17664.17664,0,0,1,.11652.2663,1.30378,1.30378,0,0,1-.33766.41447q-.21838.209-.46017.41017a8.934,8.934,0,0,1-1.05361.75274l-.28562.16685-.14372.07863a.37494.37494,0,0,1-.05187.02544c-.00947-.01812.00214.06046-.00243.04532-.00985.00517.0385-.04769.02253-.03866A.22205.22205,0,0,1,42.483,244.31l-.06641-.14636-.1332-.29333q-.26439-.57761-.511-1.11666a.68055.68055,0,0,1-.10573-.44327c.02506-.09741.169-.13964.28832-.09845a1.33361,1.33361,0,0,1,.54305.65752,2.54088,2.54088,0,0,1,.22175,1.31941C42.68951,244.51171,42.62271,244.68505,42.64777,244.69392Z" fill="#152328"/><path d="M76.0333,161.73211s13.53838,26.50476,15.44522,34.51337-.18832,47.59394-.18832,47.59394l-12.995.99778s-.92713-14.84111-2.26195-23.80311c-1.33477-8.96206-2.36244-15.63591-1.37194-18.30545.99056-2.66954-12.739-22.00106-12.739-22.00106L55.28749,170.255l5.39205-15.35877Z" fill="#152328"/><path d="M78.29123,192.93059a51.14317,51.14317,0,0,0-1.99258,4.77444,51.15389,51.15389,0,0,0-1.74852,4.86965,51.241,51.241,0,0,0,1.99263-4.775A51.21157,51.21157,0,0,0,78.29123,192.93059Z" fill="#2c4852"/><path d="M67.85965,163.544s-13.72907,40.23377-15.06384,41.75923-9.15682,39.534-9.15682,39.534l-11.57946-.294s-.34966-28.54027,1.55712-35.97688c1.90684-7.43654,4.878-19.28031,6.02216-29.00507,1.14408-9.72477-.38138-15.13345,0-21.48649s2.09747-9.47,2.09747-9.47l26.12337,11.12561Z" fill="#152328"/><path d="M66.31277,168.10828a2.4641,2.4641,0,0,0-.16629.37995q-.15992.41314-.42885,1.10707c-.369.99084-.8872,2.38233-1.52375,4.09137-1.27144,3.46027-2.9872,8.25509-4.87774,13.5516-1.89054,5.29849-3.62084,10.0872-4.90787,13.54064-.63891,1.70761-1.159,3.09788-1.52936,4.08784l-.41205,1.11308a2.455,2.455,0,0,0-.12709.39476,2.44865,2.44865,0,0,0,.17615-.37527q.17089-.40878.45786-1.09535c.3914-.95377.94524-2.33909,1.60762-4.05948,1.332-3.43813,3.09067-8.219,4.98137-13.51812,1.8727-5.29106,3.56787-10.08059,4.80539-13.577.60368-1.72066,1.0953-3.12162,1.44529-4.11922l.38264-1.12382A2.44824,2.44824,0,0,0,66.31277,168.10828Z" fill="#2c4852"/><path d="M43.21862,155.8914a1.31386,1.31386,0,0,0,.277.34531,6.73083,6.73083,0,0,0,.91066.79073,7.906,7.906,0,0,0,7.6116.95025,6.72755,6.72755,0,0,0,1.077-.54261,1.30788,1.30788,0,0,0,.35335-.26662c-.02379-.0408-.55175.30341-1.49539.63583a8.3038,8.3038,0,0,1-7.441-.92889C43.67891,156.32123,43.25177,155.8577,43.21862,155.8914Z" fill="#2c4852"/><path d="M88.6739,104.92716l-7.45229,8.60651.80708,2.35677,3.79842,4.3652s1.39672.73694,3.71583-3.45261c2.31921-4.18955,4.58849-11.85973,4.58849-11.85973Z" fill="#ffb08a"/><path d="M102.285,85.66486a.88312.88312,0,0,0-.80731-.31988l-5.20466.716a1.62275,1.62275,0,0,0-1.11314.71892L84.35177,103.39163l.83131.46436,5.755-.181L102.449,85.86782Z" fill="#152328"/><path d="M98.60142,87.82251a.37109.37109,0,1,0,.03386-.444A.32154.32154,0,0,0,98.60142,87.82251Z" fill="#fff"/><path d="M102.449,85.86777a6.40721,6.40721,0,0,1-1.00609.19906c-.70356.109-1.63349.25308-2.75835.42719-.58809.08634-1.22558.17984-1.90668.27984a1.07911,1.07911,0,0,0-.80444.47383q-.29982.4651-.61551.95488c-.85147,1.31236-1.78267,2.74784-2.76,4.25447-1.966,3.01446-3.76021,5.73356-5.07207,7.693-.639.94281-1.16737,1.72209-1.56714,2.31167a6.40558,6.40558,0,0,1-.61034.82426,6.44434,6.44434,0,0,1,.5083-.89083c.37846-.60335.87856-1.40113,1.48367-2.366,1.26434-1.99059,3.02933-4.7288,4.99519-7.74315.98478-1.502,1.92292-2.93286,2.78061-4.24109q.32287-.48806.62983-.95234a1.34537,1.34537,0,0,1,.99017-.5751c.68391-.0865,1.32414-.16761,1.91455-.24234,1.1318-.13419,2.06735-.2452,2.77515-.32906A6.45428,6.45428,0,0,1,102.449,85.86777Z" fill="#2c4852"/><path d="M96.67558,91.8065s-.46414-.08337-.71793,1.18571c-.2538,1.26913-1.07206,4.90891-1.07206,4.90891L92.45481,96.61l-3.04067.39592s-.66342.613-.17687.9459a10.77264,10.77264,0,0,0,2.40864.676l1.41737,2.03811L88.995,98.70468s-1.35734.3539-.95983,1.18224a26.38214,26.38214,0,0,0,3.14062,3.4204l-2.038-.1544-2.42367-1.47171s-.74365.03375-.46618.66711a22.655,22.655,0,0,0,2.79773,2.92184l3.05631,1.48306s1.66846-.13089,1.82842-.621a5.74926,5.74926,0,0,0,.20094-1.189s.88577-.2386,1.05118-.66832a2.67094,2.67094,0,0,0,.05909-1.10923s1.39027.2441,1.56284-.53077a8.81564,8.81564,0,0,0-.1126-2.898c-.1402-.59624.59271-6.137.53583-6.30453C97.17089,93.26506,97.54726,91.44016,96.67558,91.8065Z" fill="#ffb08a"/><path d="M94.03765,106.1387a1.67835,1.67835,0,0,1-.79733.24762,5.39,5.39,0,0,1-3.85443-.917c-.42053-.30363-.6257-.55246-.60031-.58011a11.13777,11.13777,0,0,0,2.51287,1.101A11.149,11.149,0,0,0,94.03765,106.1387Z" fill="#fe8557"/><path d="M93.31388,105.0423c-.04763.07065-.58914-.213-1.16732-.68809-.57933-.474-.96352-.94937-.90367-1.00983.06146-.06272.535.30368,1.10224.76771C92.91114,104.57723,93.36333,104.96978,93.31388,105.0423Z" fill="#fe8557"/><path d="M94.92138,102.40564c-.04631.07048-.58407-.20649-1.12579-.70874-.54377-.50054-.86226-1.01457-.79569-1.06627.06916-.05545.48407.35417,1.00818.83626C94.52993,101.951,94.97111,102.33229,94.92138,102.40564Z" fill="#fe8557"/><path d="M96.61286,100.281c-.08342.0354-.39057-.53843-.875-1.163-.47928-.62889-.95477-1.073-.89926-1.14452.047-.06767.63842.2875,1.14755.95367A2.35633,2.35633,0,0,1,96.61286,100.281Z" fill="#fe8557"/><path d="M92.04767,113.41583l-5.42091-7.6801-2.52317,3.20653-6.39715,5.44651,4.84327,19.01986,3.78554-3.80525s3.77942-10.84478,3.942-12.99655Z" fill="#3464d9"/><path d="M74.05543,90.50841c-3.02592.63941-8.64715-2.35248-14.3458-4.64752l5.02631,17.76184,17.81377,32.05374-1.20806-28.50916Z" fill="#fff"/><path d="M74.23532,90.70653s7.1941,11.74492,7.7594,13.08718a86.47191,86.47191,0,0,1,2.7627,11.49911A209.18269,209.18269,0,0,1,86.62555,140.56c.01,4.38877-.04361,8.47463-.10738,11.69118a11.82324,11.82324,0,0,1-6.17892,10.15272v.00006s.68044-36.13051.41684-38.06741c-.26365-1.937.24763-5.67-.41684-11.14307a30.2604,30.2604,0,0,0-2.63281-9.46309,78.96208,78.96208,0,0,1-3.47112-11.461C73.82234,89.68816,74.23532,90.70653,74.23532,90.70653Z" fill="#3464d9"/><path d="M49.65371,88.07008l7.27686-.82354,2.54817-1.89181,2.6457,2.63667a65.89742,65.89742,0,0,1,17.13,29.45545,82.70075,82.70075,0,0,1,2.954,17.00322c.7931,16.12158-1.32491,28.90937-1.91713,28.90937s-44.17178-11.88176-44.17178-11.88176l2.13376-15.1406L44.76781,92.808S46.64905,88.36226,49.65371,88.07008Z" fill="#3464d9"/><path d="M30.40616,124.49244s.14807-6.81069,1.77672-10.068c1.62859-3.2573,13.7876-23.71792,13.7876-23.71792s16.26822,10.68878,9.1614,31.41691l-2.36889.74035a2.76981,2.76981,0,0,1,1.18445,2.517s4.02462-.29608,5.19552,2.443a4.64279,4.64279,0,0,1,2.7996.81436c1.03643.8883,6.36653,6.71371,6.36653,6.71371s-5.47817,9.57267-7.403,9.72069c-1.92473.14807-.74029,0-.74029,0l-5.33-3.99754s-7.84711,1.33251-11.54856.148-6.21847-4.33944-7.55092-5.87117C34.40375,133.82007,30.19014,127.72793,30.40616,124.49244Z" fill="#3464d9"/><path d="M44.43137,126.44283a17.376,17.376,0,0,1,3.80464-2.47869,19.07511,19.07511,0,0,1,4.40006-1.14033,4.82952,4.82952,0,0,0-1.35129.04383,11.4571,11.4571,0,0,0-3.15356.85648,10.98878,10.98878,0,0,0-2.76458,1.74181A4.6965,4.6965,0,0,0,44.43137,126.44283Z" fill="#152328"/><path d="M40.38169,116.17661a2.36611,2.36611,0,0,0,.50665.25589l1.40657.62823c1.18538.53358,2.808,1.30278,4.5538,2.24169,1.74539.941,3.28087,1.87242,4.3788,2.56844q.76633.48881,1.29865.82845a2.37119,2.37119,0,0,0,.49239.28209,2.36745,2.36745,0,0,0-.43418-.36574c-.28871-.22284-.71717-.531-1.25515-.89953a49.40238,49.40238,0,0,0-8.96118-4.82549c-.60379-.24625-1.09689-.43435-1.44193-.5528A2.37075,2.37075,0,0,0,40.38169,116.17661Z" fill="#152328"/><path d="M53.48418,132.78546a12.81711,12.81711,0,0,1,2.73192-3.12085,12.81726,12.81726,0,0,1,3.711-1.85353,3.724,3.724,0,0,0-1.21748.24454,8.79118,8.79118,0,0,0-4.68067,3.61373A3.72066,3.72066,0,0,0,53.48418,132.78546Z" fill="#152328"/><path d="M55.65164,141.21075c.03562.01883.41359-.65174,1.05746-1.71339.64321-1.062,1.56742-2.507,2.682-4.03713,1.11682-1.52931,2.21047-2.85092,3.02515-3.78785.81419-.93742,1.337-1.50211,1.30834-1.5303a2.16264,2.16264,0,0,0-.41145.35384c-.254.23877-.6083.59779-1.0345,1.05257a40.9234,40.9234,0,0,0-5.72954,7.85564c-.3028.54481-.53644.99183-.68622,1.30669A2.16542,2.16542,0,0,0,55.65164,141.21075Z" fill="#152328"/><path d="M61.11279,140.67778c.00826-.01222-.05154-.07885-.19944-.136a.97378.97378,0,0,0-.663.00782.93379.93379,0,0,0-.62911.76991,1.04548,1.04548,0,0,0,.58247,1.06947,1.02388,1.02388,0,0,0,1.17464-.32235.86882.86882,0,0,0,.05545-.99232.89271.89271,0,0,0-.51805-.41695c-.15489-.04047-.24256-.01613-.24212-.00182a1.0917,1.0917,0,0,1,.59685.50594.68079.68079,0,0,1-.07968.75334.79873.79873,0,0,1-.88285.234.82166.82166,0,0,1-.44674-.80433.75206.75206,0,0,1,.4588-.62328A1.31018,1.31018,0,0,1,61.11279,140.67778Z" fill="#152328"/><path d="M72.04667,156.8493a9.591,9.591,0,0,0,1.89064-1.69693,14.94864,14.94864,0,0,0,3.13368-6.00965,22.44673,22.44673,0,0,0,.70021-4.60975,44.0749,44.0749,0,0,0-.08464-5.34111,109.629,109.629,0,0,0-1.495-12.1431,111.57641,111.57641,0,0,0-6.08218-21.42569,84.15163,84.15163,0,0,0-3.79666-8.46235.76824.76824,0,0,0,.05771.15319l.19317.43925c.18166.39812.43837.96077.76573,1.67838.32251.73841.714,1.63476,1.16743,2.67289.42185,1.05438.942,2.24048,1.439,3.5796a115.85411,115.85411,0,0,1,5.99759,21.40625,112.93738,112.93738,0,0,1,1.51241,12.11623,44.64135,44.64135,0,0,1,.10848,5.31633,22.54787,22.54787,0,0,1-.66282,4.57687,15.12829,15.12829,0,0,1-3.0328,5.99121,13.79753,13.79753,0,0,1-1.31412,1.32965l-.3751.315A.81189.81189,0,0,0,72.04667,156.8493Z" fill="#152328"/><path d="M67.59969,155.88919a1.41624,1.41624,0,0,0,.25253-.175c.15589-.12522.4028-.29355.6833-.54878a18.93664,18.93664,0,0,0,2.23805-2.28414,21.10883,21.10883,0,0,0,2.59575-3.9021,16.125,16.125,0,0,0,1.74522-5.38187,15.86389,15.86389,0,0,0-.37312-5.61473,17.02381,17.02381,0,0,0-1.72154-4.3049,15.9486,15.9486,0,0,0-1.82441-2.58612c-.23644-.29162-.45444-.49184-.58891-.63715a1.37,1.37,0,0,0-.2223-.20765c-.0185.015.26343.32157.73071.90317a17.69553,17.69553,0,0,1,1.74076,2.60775,17.44687,17.44687,0,0,1,1.6504,4.27479,15.98314,15.98314,0,0,1,.34818,5.53737,16.241,16.241,0,0,1-1.70277,5.31231,21.832,21.832,0,0,1-2.52488,3.89379,21.4327,21.4327,0,0,1-2.16146,2.32054C67.91026,155.60666,67.584,155.872,67.59969,155.88919Z" fill="#152328"/><path d="M35.73632,135.35181s.07989.10958.24718.31161c.16751.202.41591.50214.75158.88533a19.80089,19.80089,0,0,0,3.22784,3.02586,11.93827,11.93827,0,0,0,2.7811,1.53345,12.08853,12.08853,0,0,0,3.68758.68126,51.72746,51.72746,0,0,0,9.01321-.47141l-.08034-.02071q2.2962,1.73917,4.82037,3.65113l.01514.0115.01845.00617.65015.21872.02737.0092.01938-.00342a2.6061,2.6061,0,0,0,1.27645-.79161,12.66376,12.66376,0,0,0,1.00383-1.10273c.63556-.77415,1.23334-1.60051,1.82028-2.45451,1.17029-1.71108,2.30215-3.52943,3.405-5.4258l.04741-.08161-.0642-.06943c-1.96036-2.12049-3.96835-4.34753-6.15244-6.52132a3.27291,3.27291,0,0,0-1.46313-.83671,5.658,5.658,0,0,0-1.65089-.2136l.12549.07913a3.90248,3.90248,0,0,0-.946-1.28659,4.903,4.903,0,0,0-1.36087-.7861,7.78457,7.78457,0,0,0-3.01815-.44713l.13551.15347a2.28616,2.28616,0,0,0-.24884-1.51356,3.57787,3.57787,0,0,0-.989-1.13252l-.03491.225q1.20468-.37739,2.36828-.74205l.06079-.019.02026-.0598a34.44054,34.44054,0,0,0,1.63207-7.20693,27.1389,27.1389,0,0,0-.11856-6.748,25.29557,25.29557,0,0,0-1.56284-5.79634,26.98818,26.98818,0,0,0-2.39653-4.55985,27.78349,27.78349,0,0,0-4.75947-5.53665c-.63974-.56392-1.15817-.96859-1.51494-1.23263-.18023-.12968-.3175-.22764-.41287-.28881a1.38324,1.38324,0,0,0-.14659-.08827,1.22715,1.22715,0,0,0,.13409.10611l.39938.30533c.3474.27461.85576.68875,1.48471,1.2606A28.512,28.512,0,0,1,52.673,97.93818a27.08346,27.08346,0,0,1,2.354,4.54422,25.23712,25.23712,0,0,1,1.5254,5.75718,27.02944,27.02944,0,0,1,.09664,6.69235,34.35012,34.35012,0,0,1-1.63536,7.151l.08089-.07879q-1.16553.36335-2.36939.73852l-.23545.07341.20054.1517a2.527,2.527,0,0,1,1.13109,2.38777l-.03343.15985.169-.00633a7.54835,7.54835,0,0,1,2.9067.43325,4.6515,4.6515,0,0,1,1.28334.7409,3.64444,3.64444,0,0,1,.87591,1.19187l.03695.079.08871.00017a4.02537,4.02537,0,0,1,2.92344.97971c2.16526,2.15518,4.184,4.39053,6.142,6.5048l-.01674-.15088c-1.09639,1.88949-2.22494,3.70784-3.38692,5.41292-.5828.85108-1.176,1.67419-1.80271,2.44074a12.45019,12.45019,0,0,1-.982,1.084,2.46743,2.46743,0,0,1-1.12844.729l.04658.00578-.65081-.21695.03337.01751-4.83143-3.63642-.03541-.02666-.045.0059a52.21213,52.21213,0,0,1-8.97319.51061,10.74341,10.74341,0,0,1-6.40584-2.14064,20.62371,20.62371,0,0,1-3.25174-2.96827q-.501-.55827-.775-.86363C35.833,135.44669,35.73632,135.35181,35.73632,135.35181Z" fill="#152328"/><path d="M74.23538,90.70653a1.60487,1.60487,0,0,0,.1343.27339c.107.19372.24812.449.42543.76981.3914.68814.94133,1.655,1.62667,2.85984,1.4177,2.45192,3.39287,5.8682,5.67817,9.82085l-.01184-.02731c.54762,1.85535,1.04826,3.89,1.49842,6.01021a136.77372,136.77372,0,0,1,2.29355,15.3814c.18722,1.98277.27885,3.59187.348,4.70368q.04214.80748.06685,1.281a2.86761,2.86761,0,0,0,.04031.44652,2.86436,2.86436,0,0,0,.01244-.4479q-.00653-.47435-.01773-1.28394c-.03794-1.11418-.10154-2.72747-.26541-4.7152a124.72286,124.72286,0,0,0-2.22186-15.42011c-.45131-2.12566-.95725-4.166-1.5139-6.02749l-.0044-.01476-.00749-.01278c-2.31773-3.93377-4.32082-7.33368-5.75856-9.77393-.71193-1.18929-1.28328-2.14362-1.69-2.8229-.19207-.3121-.345-.56055-.461-.74893A1.61414,1.61414,0,0,0,74.23538,90.70653Z" fill="#152328"/><path d="M84.31151,108.94518a5.50872,5.50872,0,0,0,.49525,1.34336,15.31875,15.31875,0,0,0,4.22738,5.41777,5.50712,5.50712,0,0,0,1.18251.807,12.97421,12.97421,0,0,0-1.06253-.948,18.79685,18.79685,0,0,1-4.18134-5.3588A12.99822,12.99822,0,0,0,84.31151,108.94518Z" fill="#152328"/><path d="M90.28636,113.21677c.03547-.00782-.11029-.24817-.47884-.19338a.54512.54512,0,0,0-.44332.42631.64.64,0,0,0,.31254.68941.64978.64978,0,0,0,.74409-.1326.57458.57458,0,0,0,.13007-.59839c-.13144-.342-.39806-.36882-.39311-.33578-.01966.03386.16475.12423.21448.38452a.39352.39352,0,0,1-.11911.3762.42679.42679,0,0,1-.45577.07362.41587.41587,0,0,1-.19592-.41321.35824.35824,0,0,1,.25148-.29057C90.10305,113.118,90.26467,113.24805,90.28636,113.21677Z" fill="#152328"/><path d="M64.70136,144.50269l-1.50745-1.208s4.283-5.54491,4.94013-7.61826A38.42425,38.42425,0,0,1,64.70136,144.50269Z" fill="#ffb08a"/><path d="M61.57831,150.61636a3.18132,3.18132,0,0,0,.34586-.56072c.228-.41717.516-.94409.85923-1.57216.71463-1.33311,1.6961-3.17988,2.68248-5.27079a47.42618,47.42618,0,0,0,2.2103-5.49194c.23182-.72162.40247-1.311.50076-1.72336a3.17536,3.17536,0,0,0,.13215-.64558,3.18727,3.18727,0,0,0-.23006.61711c-.12808.40252-.32494.98136-.57812,1.69214-.50418,1.42271-1.29012,3.355-2.272,5.44034-.983,2.08387-1.9374,3.94208-2.6099,5.297-.33678.67718-.60638,1.22695-.7855,1.61059A3.18513,3.18513,0,0,0,61.57831,150.61636Z" fill="#152328"/><path d="M75.13492,105.81068a.59034.59034,0,0,1,.06723.13535l.1707.40819.63082,1.5803.44955,1.145c.15688.4213.31079.885.48474,1.38031.33754.99392.75581,2.11531,1.11941,3.38653q.28719.94979.60048,1.98608c.20589.69156.37917,1.42232.58077,2.173.41772,1.49815.75675,3.12476,1.1356,4.83138a106.60607,106.60607,0,0,1,1.65464,11.24808,106.59392,106.59392,0,0,1,.33655,11.367c-.07472,1.74682-.12433,3.40779-.27389,4.95605-.06729.77432-.11018,1.52419-.19212,2.24108q-.12729,1.074-.24415,2.06052c-.13591,1.31516-.35182,2.49234-.51046,3.52992-.08469.518-.15523,1.00147-.23606,1.44364q-.13248.65845-.24256,1.2058c-.14631.70681-.26161,1.264-.34487,1.666l-.09675.43165a.59339.59339,0,0,1-.04256.145.59987.59987,0,0,1,.01387-.151l.06883-.43721c.07038-.40418.168-.96424.29174-1.67485q.09861-.54788.21761-1.20862l.21233-1.44534c.14333-1.03824.34487-2.21514.46756-3.52915q.1077-.98423.22527-2.0581c.07593-.71584.11321-1.4645.17521-2.23734.139-1.54528.17951-3.20251.24691-4.94486a110.62607,110.62607,0,0,0-.35808-11.335,110.62071,110.62071,0,0,0-1.62794-11.22043c-.37075-1.70354-.7002-3.328-1.107-4.8251-.19609-.75009-.36365-1.48064-.56342-2.1722q-.30314-1.03567-.58149-1.987c-.35043-1.27238-.75444-2.396-1.07706-3.39331q-.2478-.744-.46166-1.386l-.42549-1.15218c-.24608-.67812-.44-1.21258-.58-1.5983l-.14416-.41855A.59711.59711,0,0,1,75.13492,105.81068Z" fill="#152328"/><path d="M81.1655,158.89336c-.01878.077-9.95532-2.28419-22.191-5.273-12.24-2.9899-22.144-5.47525-22.12518-5.55223.01878-.07687,9.95323,2.28375,22.19319,5.27366C71.27824,156.33065,81.18433,158.81649,81.1655,158.89336Z" fill="#152328"/><g opacity="0.3"><path d="M59.00739,144.0565c-.67724-.43391-3.35575-2.84575-3.35575-2.84575a95.50321,95.50321,0,0,1-9.55743.27775,12.19871,12.19871,0,0,1-7.73428-3.5818l-.32433.56056a6.27994,6.27994,0,0,0,3.91,5.40736,11.66651,11.66651,0,0,0,6.93265.451c1.56147-.30765,3.22294-.78682,4.6946-.181,1.20267.49509,2.0141,1.61808,3.06149,2.3891a3.01746,3.01746,0,0,0,3.78757-.54812C61.19109,144.97432,59.99944,144.69211,59.00739,144.0565Z"/></g><g opacity="0.3"><path d="M52.98821,122.82563a10.10468,10.10468,0,0,0-10.48807,1.24512,2.9041,2.9041,0,0,0-.876,1.02129,1.22484,1.22484,0,0,0,.11949,1.28058,1.28178,1.28178,0,0,0,1.29441.29829,4.28791,4.28791,0,0,0,1.22629-.66282,20.78808,20.78808,0,0,1,8.86223-3.36038"/></g><path d="M33.67228,53.87865a1.57749,1.57749,0,0,1-.19431-.19609c-1.33689-1.59418-2.68207-3.18119-4.10255-4.7024a.43529.43529,0,0,1-.12892-.32407c.00623-.31554.001-.63129.00238-.94694a.29053.29053,0,0,1,.33025-.32863c.4829-.00738.96659.02182,1.44861-.0255a2.934,2.934,0,0,0,1.51657-.51094,1.60829,1.60829,0,0,0,.57033-.77858c.03177-.091.02192-.11522-.081-.11488-1.07939.00352-2.15879.00217-3.23819.00217-.07793,0-.15588.00084-.2338-.00019-.21572-.00286-.31111-.09776-.3127-.31616q-.00285-.39164.00013-.7833c.00185-.21193.09609-.30747.30724-.3085.43253-.00214.86508-.00069,1.29762-.0007h2.16624a1.00839,1.00839,0,0,0-.24321-.35242,1.99576,1.99576,0,0,0-1.00645-.507,4.76974,4.76974,0,0,0-1.07874-.10141c-.3585-.00111-.717-.00007-1.0755-.00032-.27143-.0002-.36752-.09475-.36773-.36177-.00026-.32736-.00086-.65471.0002-.98206.00078-.23923.094-.3326.33221-.33263q3.472-.00047,6.944-.00005c.24439,0,.33838.09311.34.33843q.00249.36826,0,.73654c-.00179.24434-.0938.33442-.34134.33472q-.94078.00114-1.88139.00025c-.02264.04462.01468.067.03249.0925a2.79447,2.79447,0,0,1,.44829,1.01673c.01987.09178.05474.12308.15371.12143.42073-.007.84165-.00342,1.26249-.00279.252.00038.33983.08646.34074.33406.00092.25331.0017.50663-.00025.75992-.00168.21729-.0978.31356-.31413.31425-.42864.00137-.85729.00052-1.28593.00031-.0541,0-.0988-.00953-.11467.0733a3.33556,3.33556,0,0,1-2.56557,2.682c-.13749.041-.279.06947-.4198.09812-.1395.02839-.28045.04964-.43622.0767.1067.118.20448.22729.30352.33545,1.23972,1.35391,2.40406,2.77208,3.56961,4.18918.15488.18831.10772.36529-.12047.4712Z" fill="#152328"/><g style="isolation:isolate"><g clip-path="url(#clip-path)"><path d="M65.8445,103.782l-.10156.01829-.09171.12619a.49544.49544,0,0,0-.01356.29491l.37607,1.82415c.04.19387.021.25212-.11043.27579l-.16727.03013c-.10754.01937-.1561-.03585-.187-.18566-.12952-.59816-.25306-1.1974-.37244-1.80653-.0436-.21149-.12228-.35269-.282-.40618l-.11351.02045-.01247.02967a.38862.38862,0,0,0-.08084.38927l.37788,1.833c.04.19387.01321.24438-.11822.26806l-.16728.03013c-.10156.01829-.15609-.03586-.187-.18567l-.38152-1.85058a.54747.54747,0,0,0-.11606-.26242l-.16284-.09863-.10156.0183c-.12521.11394-.12654.28783-.08112.50814.14042.651.26888,1.30423.40748,1.94645a1.53316,1.53316,0,0,0,.97226,1.25978c.12441.03243.16518.07992.20333.265l.77395,3.754a.5887.5887,0,0,0,.38511.51557l.01558.01547.1374-.02475.0465-.04494a.56561.56561,0,0,0,.13775-.564l-.258-1.25135-.52323-2.53794c-.03633-.17625-.01918-.24331.08525-.30782a1.44408,1.44408,0,0,0,.40906-1.472l-.42876-2.0797a.39929.39929,0,0,0-.26929-.34449" fill="#fff"/><path d="M62.31377,104.418l-.19714.03551-.07456.05913a1.087,1.087,0,0,0-.34684.6017,3.34717,3.34717,0,0,0-.0524,1.18845,4.51811,4.51811,0,0,0,.46858,1.55158,2.06543,2.06543,0,0,0,.46665.61054.59641.59641,0,0,1,.18021.33313L63.485,112.323c.0654.31724.162.45521.39056.542l.0096.01654.13741-.02475.05247-.046a.56706.56706,0,0,0,.13-.57178l-.7376-3.5778a.55447.55447,0,0,1,.03252-.35316,2.00077,2.00077,0,0,0,.19466-.73881,4.4581,4.4581,0,0,0-.18182-1.60323,3.46784,3.46784,0,0,0-.52112-1.08513,1.105,1.105,0,0,0-.5672-.43707l-.11065-.02577" fill="#fff"/></g></g></svg>